<?xml version="1.0" encoding="UTF-8" standalone="no"?>
<svg
   xmlns:dc="http://purl.org/dc/elements/1.1/"
   xmlns:cc="http://creativecommons.org/ns#"
   xmlns:rdf="http://www.w3.org/1999/02/22-rdf-syntax-ns#"
   xmlns:svg="http://www.w3.org/2000/svg"
   xmlns="http://www.w3.org/2000/svg"
   xmlns:sodipodi="http://sodipodi.sourceforge.net/DTD/sodipodi-0.dtd"
   xmlns:inkscape="http://www.inkscape.org/namespaces/inkscape"
   width="64"
   height="64"
   viewBox="0 0 103.13839 103.13839"
   version="1.1"
   id="svg8"
   sodipodi:docname="logo-icon.svg"
   inkscape:version="1.0.1 (3bc2e813f5, 2020-09-07)"
   inkscape:export-filename="/home/loki/src/github.com/l0k18/sporeOS/pkg/logo/logo.png"
   inkscape:export-xdpi="260"
   inkscape:export-ydpi="260">
  <defs
     id="defs2" />
  <sodipodi:namedview
     id="base"
     pagecolor="#ffffff"
     bordercolor="#666666"
     borderopacity="1.0"
     inkscape:pageopacity="0.0"
     inkscape:pageshadow="2"
     inkscape:zoom="5.6"
     inkscape:cx="96.542288"
     inkscape:cy="32.107649"
     inkscape:document-units="mm"
     inkscape:current-layer="g44"
     inkscape:document-rotation="0"
     showgrid="false"
     showguides="false"
     fit-margin-top="0"
     fit-margin-left="0"
     fit-margin-right="0"
     fit-margin-bottom="0"
     inkscape:window-width="1880"
     inkscape:window-height="1040"
     inkscape:window-x="40"
     inkscape:window-y="0"
     inkscape:window-maximized="1"
     scale-x="6.09085"
     viewbox-width="100"
     viewbox-height="100"
     viewbox-x="0"
     units="px" />
  <metadata
     id="metadata5">
    <rdf:RDF>
      <cc:Work
         rdf:about="">
        <dc:format>image/svg+xml</dc:format>
        <dc:type
           rdf:resource="http://purl.org/dc/dcmitype/StillImage" />
        <dc:title></dc:title>
      </cc:Work>
    </rdf:RDF>
  </metadata>
  <g
     inkscape:label="Layer 1"
     inkscape:groupmode="layer"
     id="layer1"
     transform="translate(-60.35447,-130.53941)">
    <g
       id="g44"
       transform="translate(-8.5075818,28.660668)">
      <g
         id="g210"
         transform="translate(12.654266,230.68961)">
        <path
           id="path52-9"
           style="opacity:0.29;fill:#ffffff;stroke-width:0.0846667"
           d="m 105.78609,-27.75191 c -10.775244,-0.99862 -19.923779,-8.29702 -26.325753,-16.60793 -6.334916,-8.53404 -9.664835,-18.97049 -10.501587,-29.49707 -1.196064,-10.62854 0.998158,-21.59964 5.629953,-31.18784 5.72219,-10.55223 15.654635,-19.33733 27.753087,-21.36412 10.26096,-1.94708 21.68858,1.51778 28.15342,9.9684 9.0036,9.86982 15.90856,22.43705 16.06847,36.07791 0.67711,6.56858 0.202,13.24177 -1.92738,19.51865 -3.45003,11.67107 -10.01802,23.07856 -20.45255,29.767 -5.54855,3.10769 -12.13048,4.03244 -18.39766,3.325 z"
           sodipodi:nodetypes="cccccccccc" />
        <g
           id="g102"
           transform="translate(9.6612212,-229.58785)">
          <path
             id="path58"
             style="opacity:0.1;fill:#000000;stroke-width:0.0846667"
             d="m 96.532199,202.6841 c -6.345687,-0.55367 -12.445824,-2.97258 -17.287292,-7.14153 -5.728793,-3.8665 -10.268081,-9.29198 -13.574532,-15.27775 -2.321613,-3.50223 -3.255631,-7.56518 -4.809671,-11.42361 -1.388008,-5.29471 -2.174626,-10.77215 -2.589425,-16.22526 -0.106487,-4.60867 0.239486,-9.24211 1.21015,-13.74292 1.444567,-8.23681 4.506517,-16.48233 10.395565,-22.61024 5.639559,-7.39024 14.091967,-12.53078 23.320197,-13.83452 5.614268,-1.17033 11.495639,-0.49131 16.797009,1.65343 4.1808,1.58945 8.00354,4.44837 10.81305,7.92045 3.96154,3.81035 6.75029,8.58655 9.87488,13.05665 4.41455,7.38416 6.70746,15.90713 7.09231,24.47076 -0.18833,4.1651 0.83778,8.70683 -0.47902,13.02165 -1.10396,4.6882 -1.99613,9.48625 -4.26065,13.78755 -2.84494,7.8191 -8.19333,14.54328 -14.17129,20.22845 -5.45808,4.54696 -12.6127,6.40517 -19.613294,6.25696 -0.906359,-0.003 -1.824148,0.0422 -2.717987,-0.14007 z m -2.293845,-11.14326 c 1.134428,-2.20901 -1.47138,-0.65982 0,0 z m 3.079338,-0.67343 c 0.439769,-1.8712 -2.125756,0.27386 0,0 z m -1.773452,-2.48009 c -0.165966,-0.70138 -0.506391,0.85247 0,0 z m -2.695043,-0.30911 c -0.209925,-0.44611 -0.209925,0.44611 0,0 z m 6.017937,-0.10203 c 0.794719,-2.96995 -5.222759,1.18331 0,0 z m -19.061569,-0.44564 c 2.64987,-2.43121 -6.695831,-6.48188 -1.040481,-6.1441 0.577066,-0.92666 -1.29399,-1.93325 -0.862611,-3.08726 -1.921826,-2.15733 3.449517,-2.30001 1.233413,0.0529 3.900965,-0.16428 0.310355,-1.59649 0.572358,-4.1672 -2.124185,-0.5439 0.981007,3.656 -1.848371,0.93062 0.495878,-2.19223 -2.208331,-3.06251 0.306522,-4.58756 -1.854622,-1.22923 -3.693802,-4.03827 -0.289162,-1.93974 0.81327,0.77868 3.314755,1.81033 3.346129,0.23593 -3.127775,1.49058 -1.675306,-2.68404 -1.056789,-3.37514 -3.336959,-2.09616 -0.835078,4.07591 -3.685801,0.79275 1.320005,-2.08428 4.053126,-3.32825 0.653297,-3.58408 -1.761084,-1.63503 0.871424,-3.18831 2.793252,-2.12723 -1.432409,-1.38549 -2.483154,-3.43291 -1.366078,-5.6346 -0.932454,-2.77467 -0.882824,-1.66062 -2.42344,-0.58878 -0.525178,-1.50739 -2.093191,-6.17556 1.256653,-5.19507 0.929885,-2.52768 -4.22191,0.48612 -0.888877,-2.00627 1.646666,-2.71321 -4.398019,-4.12873 -0.652985,-6.14438 2.32482,1.77733 -0.897419,-1.32305 -0.728083,-2.15898 -1.732478,-1.5221 3.98139,-0.65167 2.615687,-3.25962 -1.933716,4.68438 -6.996158,-5.17751 -2.395226,-0.88348 2.874531,-2.40332 -2.261272,-2.15622 -1.195969,-4.7401 -2.402966,-1.99472 -1.861,4.16841 -3.054315,3.98162 2.355507,0.63589 1.131858,1.96339 -0.549877,1.14587 -0.831355,1.81534 -3.676066,2.15306 -0.536329,2.91764 -1.452871,1.10813 -2.535416,2.86162 -2.111711,4.40778 -4.296188,1.88747 3.279972,1.71794 -0.279618,3.22383 -3.139507,-0.19862 0.575053,3.15075 2.173821,1.65068 -0.107992,4.40308 -5.299775,-1.9339 -4.49092,3.01767 0.860735,2.11091 -1.088627,3.02616 -0.622009,4.53313 1.734863,0.44984 0.634647,-4.02527 3.477526,-1.24789 0.813395,2.03982 -4.272608,2.92096 -1.127956,4.64647 0.595032,2.21479 -4.004153,2.54248 -1.201781,5.06024 1.13931,2.64084 0.856388,6.9782 3.470582,8.01863 2.712158,-0.48814 -2.70401,3.11165 0.8463,3.90505 0.978585,3.81959 3.791872,6.56805 4.967275,10.40901 2.083649,-0.63946 3.606166,-0.26269 3.261107,1.96517 l 0.740457,0.0501 0.693912,-0.0733 z m -6.043636,-6.88882 c -1.104408,-1.77545 -2.699795,-5.79474 0.163595,-5.21996 -0.324072,1.24864 2.974471,5.26352 -0.163595,5.21996 z m 2.915934,-4.07817 c 0.324478,-0.45561 0.324478,0.45561 0,0 z m -5.232512,-2.9845 c -1.911953,-2.48108 3.58744,-3.50674 1.388389,-0.38856 -0.363918,0.0976 -1.007903,1.01952 -1.388389,0.38856 z m 0.173891,-3.68267 c -3.233056,-1.09542 1.016885,-5.2089 0.147768,-1.85908 -0.965946,0.5798 2.076959,2.14491 -0.147768,1.85908 z m -1.611207,-3.49763 c -0.566027,-1.33619 1.328176,0.29077 0,0 z m -1.923839,-0.62677 c -3.515404,-2.78147 1.771881,-2.91483 0.881043,-0.1516 l -0.412198,0.21591 z m 1.566333,-2.6526 c -1.742213,-2.57988 1.437909,-3.11181 0.890764,-0.0317 l -0.396231,0.13449 z m -2.455333,-1.58417 c -0.515731,-1.91731 1.721915,0.40443 0,0 z m 4.157496,-2.53156 c -0.227119,-0.80518 0.877289,0.22285 0,0 z m 4.288454,-0.21058 c -1.227945,-2.53888 1.627253,-3.04402 0,0 z m -6.298449,-0.34313 c -1.845861,-1.51208 -1.018274,-4.28416 0.464219,-1.2541 0.657878,0.78641 0.872712,1.50976 -0.464219,1.2541 z m 4.811903,-3.83623 c -0.865319,-2.16687 2.038824,0.36863 0,0 z m -6.857804,-3.00143 c -0.307518,-1.30058 1.417344,0.32817 0,0 z m 2.775147,-0.83165 c -0.667387,-1.62698 1.461026,0.15528 0,0 z m 4.684689,-4.40156 c -2.294776,-3.29621 3.130084,-1.27458 0,0 z M 69.26014,140.7936 c -0.339229,-2.03307 2.659719,0.10442 -5e-6,3e-5 z m 4.45439,-0.12372 c 0.160691,-0.42637 0.26297,0.30715 0,0 z m -2.020199,-0.92211 c 0.212295,-1.15665 1.041663,0.2888 0,0 z m 1.122092,-1.6243 c -0.245151,-2.25933 2.68939,0.62688 0,-2e-5 z m -1.951948,-0.54428 c -0.749638,-2.25246 2.888675,0.068 0,0 z m 24.253815,49.16552 c 0.598702,-3.34551 4.840723,0.20749 4.208373,-3.72833 0.845517,-1.01463 0.432929,-3.71813 3.138487,-1.65424 3.39153,1.24982 0.49827,-0.14924 0.022,-1.67916 2.337,-0.0671 4.23261,-2.13809 6.32695,-1.98879 -0.12379,1.24259 -5.02343,3.94872 -1.81767,2.39453 2.76951,1.41087 3.01175,-5.6936 5.03358,-2.39553 -3.25847,2.21835 1.08336,1.56585 0.74143,-0.52652 0.81466,-0.61579 4.53769,3.11614 2.23405,0.72617 -1.92003,-2.93867 1.98017,-1.33627 2.19284,-1.40399 -1.44112,-0.701 -5.12587,-3.15308 -1.20862,-2.73013 2.04577,1.8131 3.23451,0.57323 0.56997,-0.67919 -2.56337,-0.3404 -0.79603,-3.20906 0.76117,-1.03906 2.52416,-0.17988 1.38238,3.94862 2.95057,2.1419 -1.29724,-2.41649 4.22215,-0.0883 0.73554,-2.24719 -2.22033,1.12198 -6.4333,-3.89431 -2.22149,-1.73208 1.36783,1.60633 5.2576,-0.20621 4.50041,-2.14857 -2.95063,3.15206 -2.68703,-1.18023 -0.057,-2.18111 2.54408,1.67496 0.51296,-2.34692 -1.2735,-1.85845 -1.77582,1.08505 -4.79882,0.96769 -1.28273,-0.1543 2.09945,-0.8745 5.83634,-0.62954 5.06956,-3.83389 -1.51184,-0.0629 -2.57778,1.58906 -1.93309,-1.07873 2.57593,0.86044 3.31886,-2.96628 4.78912,-3.58073 -1.59586,0.85756 -5.29015,0.0106 -2.1179,-1.54588 3.55072,1.32195 0.046,-2.7151 0.52593,-3.12354 3.65458,-2.32933 -4.01902,-2.0088 -0.21734,-3.36552 -0.60261,-1.57474 0.33739,-3.26455 -1.96201,-1.99861 -1.38197,-1.38544 3.46063,-2.71076 0.3249,-4.58675 -1.30965,-1.93912 -1.97505,-2.21838 -3.64249,-1.39447 -1.98333,-0.92703 2.60202,-3.89335 -0.45017,-5.56786 -2.0815,-1.58766 0.0116,-5.58854 -2.50733,-4.10747 0.56284,-3.18993 -3.23152,3.76839 -2.63554,-0.25883 -0.29838,-2.60405 5.02354,-0.85853 0.87168,-2.70232 -0.89618,-0.44405 -2.20633,2.93397 -3.31092,0.78317 -2.18352,-0.11595 -3.22801,1.21598 -0.68887,1.18533 2.97515,-0.66044 1.09075,3.14308 -1.32209,1.6789 -2.4355,0.65766 -0.55065,-4.20987 -3.52229,-2.61557 3.10359,2.72163 -3.64259,0.84296 -0.58167,-0.5564 -0.39017,-1.81584 -2.8844,-0.0587 -3.05583,-2.48626 -2.23349,1.75911 -4.693359,1.5928 -6.597228,-0.0847 -2.119268,-0.25268 -2.851195,-0.0409 -1.917739,-1.78392 -2.30022,-1.89445 -4.069616,2.46714 -4.402553,-0.36064 -1.595932,2.04118 -1.032779,3.58321 -3.703886,4.54565 2.273137,3.33687 -3.790823,8.35231 0.885331,11.02229 -0.0798,1.93215 -4.606389,-2.66963 -4.535471,-4.58683 -3.133432,-2.22116 1.699521,4.56891 -2.045822,3.11627 0.154478,-4.10987 -1.28212,-0.62722 0.02736,1.30496 -0.416928,1.96116 -0.347866,2.94632 1.197867,1.13651 0.06583,1.59207 -0.779754,4.96065 -2.705027,5.11428 2.891365,-1.31249 3.665139,1.83304 5.936089,0.76905 -0.806185,3.18715 -4.027882,2.4445 -2.721339,6.10245 0.304821,1.76315 -0.506025,4.37424 0.144647,5.44066 3.031705,-1.12414 -1.582184,6.4819 2.266116,3.11986 4.08979,2.74459 -3.73623,1.54527 -1.214605,5.47096 0.684497,2.24702 -2.069009,3.368 0.307648,4.29456 -2.852358,0.74615 0.618045,5.78657 1.807072,7.29093 1.097095,1.60529 1.814931,5.98932 1.960068,1.31935 -2.967465,-3.08436 -1.878558,-7.72383 -1.902969,-11.42796 1.258682,-2.30923 1.733002,3.78897 0.823722,5.09769 3.450292,1.46561 1.652958,4.85218 3.499997,7.10399 -1.37033,3.13681 2.626234,7.83309 4.877933,4.58746 2.449492,0.81344 -4.3544,3.29489 -1.175252,3.44659 z m 3.049563,-4.5111 c -1.553301,-1.86985 3.135067,0.52332 0,0 z m -6.390775,-0.84946 c 0.138429,-1.52892 0.916643,0.50743 0,0 z m 0.824109,-1.3879 c -0.267553,-0.68963 0.73538,0.008 0,0 z m 7.562293,-0.59465 c -0.718907,-2.21899 4.00611,-1.43572 0.57636,0.0565 l -0.57641,-0.0565 z m 2.77127,-1.27193 c -1.42425,-1.36582 2.33019,-0.29913 0,0 z m 2.86845,-0.63479 c -2.46478,-0.38211 -0.59456,-3.70346 -0.0973,-0.72928 0.82443,-0.12118 1.36,1.43421 0.0973,0.72928 z m -12.482288,-0.85271 c -0.398306,-1.09494 1.057966,0.41251 0,0 z m 7.975948,-0.18446 c -2.893947,-3.5093 2.24623,-0.16926 0,0 z m 10.687,-0.26732 c -3.39584,-2.37976 4.90545,-1.4824 1.06332,0.24628 l -0.57278,-0.0464 -0.49053,-0.19973 z m -4.78366,0.0427 c -2.48389,-2.65581 2.82629,-0.70005 0,0 z m 2.13121,-0.45275 c -2.66336,-3.32625 3.8831,0.32475 0,0 z m -5.4215,-1.5875 c 0.005,-1.14547 0.79408,0.46885 0,0 z m 8.5976,-0.50116 c -1.94809,-2.40854 2.6932,-0.36208 0.50015,0.41917 z m -6.6105,-0.15686 c -1.506,-2.81811 5.14983,-0.95368 0,0 z m 3.73638,-0.28738 c -0.8849,-2.46877 2.34124,0.0699 0,0 z m 4.09219,-2.02398 c -0.23337,-1.33363 1.7539,0.4987 0,0 z m -8.37389,-0.2111 c -0.009,-1.74567 1.55391,0.52526 0,0 z m 5.97177,-0.0114 c -0.22261,-1.65846 2.2139,-0.37116 0,0 z m -25.947859,-0.0342 c -0.306214,-0.47741 0.328604,-0.119 0,0 z m 29.389629,-1.37748 c -3.87286,-1.71283 3.14339,-1.07709 0.29728,0.27214 z m -13.17385,-0.0247 c -1.621118,-1.86101 2.74027,0.16556 0,0 z m 15.68412,-0.86094 c -2.03674,-2.5392 5.10854,0.18525 0.5927,0.0603 l -0.5927,-0.0604 z m -5.8843,-0.22575 c -0.26214,-3.42119 2.33385,0.37054 0,0 z m -9.398,-1.43933 c 0.4326,-0.60749 0.43265,0.60747 0,0 z m 10.99278,-0.0113 c -0.81731,-4.19211 2.98007,0.21368 0,0 z m 1.93548,-0.59819 c -0.93197,-2.25135 1.77703,0.56052 0,0 z m 2.0573,-0.51785 c -0.91038,-2.02714 2.64348,-0.0645 0,0 z m -29.385723,-0.9258 c 0.318059,-3.42516 1.2979,1.43244 0,0 z m 17.951433,-0.51531 c -0.80036,-1.16523 1.49202,0.0808 0,0 z m 6.74537,-0.101 c -0.2028,-1.18271 1.13413,0.53316 0,0 z m 3.25629,-0.0747 c -0.73205,-2.02664 1.43327,0.37895 0,0 z m -1.45227,-0.8833 c -0.64863,-2.4472 2.9154,0.8821 0,0 z m -24.392739,-0.19998 c -1.821488,-2.56378 3.901057,-6.26641 0.528952,-2.16498 0.224356,0.756 1.044518,2.37236 -0.528952,2.16498 z m 27.871639,-0.19319 c -0.0833,-1.13511 1.29764,0.41869 0,0 z m -29.889942,-0.13128 c -0.200083,-1.55983 0.994817,0.74374 0,0 z m 33.120902,-0.33901 c -0.87161,-1.47198 1.6325,0.13843 0,0 z m -1.21999,-0.003 c -1.27816,-4.1785 2.46491,-0.66366 0,0 z m -3.3466,-0.58956 c -1.29005,-2.49779 2.90063,0.0166 0,0 z m -3.96282,-0.51937 c -0.7172,-2.488 2.87798,0.75088 0,0 z m 12.66585,-0.20827 c -0.69104,-1.27226 1.53219,0.4119 0,0 z m -3.26373,-0.2568 c -0.28397,-2.17053 1.54869,0.27469 0,0 z m -7.05492,-0.59997 c 0.0425,-1.85924 1.48983,0.6946 0,0 z m -26.963163,-0.51131 c -3.034355,-4.13678 2.330821,-0.42153 0,0 z m 21.997153,-0.55688 c -1.98459,-2.22324 1.9513,-0.078 0,0 z m 1.62649,-1.00614 c -0.69734,-1.26536 1.28556,0.29744 0,0 z m 9.96494,0.008 c 0.35515,-0.88617 0.78786,0.42507 0,0 z m 2.6961,-0.63412 c 0.15733,-1.05088 2.37083,0.44279 0,0 z m -13.3337,-0.49406 c -1.26218,-2.35986 2.18948,1.36654 0,0 z m 11.87698,-0.11188 c -2.66234,-0.33207 2.67592,-2.78001 0.79728,-0.0274 l -0.79728,0.027 z m -29.366177,-0.20267 c -0.385992,-1.18525 1.241454,0.37635 0,0 z m 26.493447,-0.12124 c -0.59552,-1.43506 1.35036,0.073 0,0 z m -21.095937,-0.63171 c -0.132716,-2.04756 1.866987,0.75225 0,0 z m 15.054087,-0.52127 c 0.36165,-1.29704 1.29164,0.37548 0,0 z m 4.03097,-0.18994 c -0.0983,-1.07334 0.99286,0.66917 0,0 z m -16.34089,-0.25456 c -0.14283,-1.14968 1.04868,0.65762 0,0 z m 20.36972,-0.30067 c -0.0531,-2.78449 2.73986,0.49329 0,0 z m -37.164333,-0.67301 c -0.58053,-2.57694 2.7647,0.74574 0,0 z m 39.310333,-0.59388 c -1.86775,-3.03547 2.55408,0.37651 0,0 z m -17.551,-1.05712 c 0.0512,-2.1601 2.3173,0.70666 0,0 z m 19.42153,-0.0406 c -1.80524,-1.71948 2.42821,-0.32605 0,0 z m -40.173671,-0.78015 c -1.104285,-3.57368 3.651376,-2.51835 0,0 z m 36.851581,-0.34915 c 0.72351,-2.12808 1.66253,-0.0755 0,0 z m -6.858,-0.67733 c 0.17071,-1.35095 0.78106,0.33199 0,0 z m 1.52037,-0.41881 c -1.78066,-1.79009 2.70932,-0.1809 0,0 z m 7.54558,-0.11892 c -1.44472,-2.17563 1.91848,-0.61639 0,0 z m -15.09006,-0.70033 c 0.16078,-0.42637 0.26304,0.30715 0,0 z m -24.430177,-0.38215 c -0.607704,-1.79124 1.725725,0.5042 0,0 z m 26.355177,-0.40602 c -1.02246,-2.19319 2.1485,-0.5009 0,0 z m 8.362,0.007 c -1.90388,-2.12661 2.54392,-0.18169 0,0 z m -2.73176,-0.53985 c -1.69232,-2.40856 3.0504,-0.30281 0,0 z m 6.70261,-0.49825 c -1.15151,-1.98417 2.58047,0.15986 0,0 z m -14.47049,-0.081 c -0.45851,-1.19201 1.39228,0.0763 0,0 z m 9.06237,-0.97694 c -0.49736,-3.43544 3.95588,-2.02327 3.63286,-0.0196 -0.9377,-1.47792 -2.59351,0.51038 -3.63286,0.0196 z m -3.50795,-0.4439 c -0.0194,-1.54922 1.01371,0.7228 0,0 z m -4.359,-0.0605 c 0.74959,-0.46766 0.31149,-0.21674 0,0 z m -14.476622,-0.0556 c 0.225794,-0.64534 0.486968,0.46529 0,0 z m 20.823562,-0.59551 c -0.52316,-2.44003 2.15021,0.50367 0,0 z m -3.85026,-0.62393 c -0.36914,-0.97889 0.77426,0.19428 0,0 z m 0.74094,-1.36256 c -0.51897,-2.96897 -2.93648,-0.69562 -3.6055,-1.8692 1.55947,-2.17884 6.35763,0.63838 3.6055,1.8692 z m 11.3249,-0.12725 c -0.42095,-1.74907 1.58836,-0.5198 0,0 z m -9.35626,-1.29341 c -1.36636,-2.49561 2.65159,-0.16463 0,0 z m -10.25475,-0.44233 c -0.21884,-1.54619 1.06665,0.74518 0,0 z m 4.16922,-0.1286 c -0.6276,-1.4102 1.44799,0.42842 0,0 z m 10.16977,0.0473 c -1.13291,-1.75142 2.28247,-0.01 0,0 z m -18.62857,-0.0854 c -1.145696,-1.76521 2.12674,0.0172 0,0 z m -10.250207,-0.63641 c -0.770001,-2.29237 2.253928,0.1354 0,0 z m 31.557417,-0.0852 c 0.005,-1.39154 1.18505,0.45445 0,0 z M 85.648201,140.5336 c -0.279475,-2.34333 1.805874,0.46216 0,0 z m 14.357779,-0.0477 c -0.40925,-0.95191 0.97282,0.21347 0,0 z m 15.63626,-0.50395 c -2.42704,-2.80467 1.59167,-0.33652 2.63037,-1.73305 4.80495,1.41901 -1.33446,1.80303 -2.63037,1.73305 z m -8.73838,-0.93279 c 0.28592,-0.37747 0.30024,0.45092 0,0 z m -8.297327,-0.59267 c 0.285861,-0.37744 0.300294,0.4509 0,0 z m 17.425927,-1.51695 c -0.11138,-1.92077 1.56142,0.94348 0,0 z m -1.87743,-0.16925 c -0.37858,-1.47178 2.07078,0.13041 0,0 z m -3.6613,-0.58428 c -0.6252,-2.15786 2.12936,0.62354 0,0 z m -14.291866,-1.41926 c -0.20785,-1.0137 1.005482,0.70476 0,0 z m 19.659376,0.001 c -0.90434,-2.07617 2.70696,-0.18693 0,0 z m -4.67941,-0.86835 c -1.01494,-1.77423 -1.80677,-2.87044 0.61553,-1.81224 1.04706,-1.99902 2.8223,1.41135 0.32497,0.27957 -0.009,0.50619 0.19389,2.53204 -0.9405,1.53267 z m 2.42763,0.18648 c 0.19051,-2.72787 2.12713,0.39452 0,0 z m 4.91553,-0.3378 c 0.32321,-2.21923 3.28744,-0.16248 0,0 z m -3.91713,-1.21241 c -0.0258,-2.94261 4.05461,-0.15903 0.22106,0.10804 z M 88.76403,131.2603 c 0.19987,-2.0352 2.279353,0.25182 0,0 z m 14.7611,-1.58809 c -2.45257,-1.31798 4.21596,-1.29623 0.61458,0.0846 l -0.61458,-0.0847 z m -7.320784,-1.08864 c -0.284677,-1.07669 1.916539,0.0958 0,0 z m 3.596169,-0.0526 c 0.625615,-1.46799 4.516915,-0.50874 1.012275,0.0545 -0.26174,-0.20986 -0.80939,0.34267 -1.012275,-0.0545 z m 5.283015,-0.52432 c -2.29206,0.23298 -3.46875,-3.17377 -0.83942,-1.33142 -0.205,0.65518 2.75929,1.35858 0.83942,1.33142 z m -6.646587,-0.97428 c -4.339134,-3.05453 2.895087,-0.397 0,0 z m -7.02708,-1.94656 c 0.324478,-0.45561 0.324478,0.45561 0,0 z m 2.135508,-0.7664 c -0.503743,-1.45713 1.663796,0.40627 0,0 z m 4.045162,61.50477 c -0.559669,-0.60159 -0.253506,0.89593 0,0 z m 3.604747,-1.50791 c 2.82613,-1.26005 -1.659205,0.19609 0,0 z m -12.283115,-2.14356 c -0.521355,-4.41078 -0.499218,3.21278 -3e-6,0 z m 17.384315,0.50055 c -0.93224,-1.34286 -1.0316,1.09389 0,0 z m 4.92696,-1.7532 c -0.004,-2.07653 -1.22247,0.91942 0,0 z m 6.81611,-1.38668 c -0.0856,-2.04911 -1.0291,1.48239 0,0 z m -36.807395,-0.26312 c -1.456187,-1.90207 -1.13114,1.10489 0,0 z m 32.523755,0.0561 c -0.0976,-0.88125 -0.91433,0.53086 0,0 z m 5.08595,-2.6358 c -0.66559,-1.48279 -1.02554,0.86725 0,0 z m 2.76801,-0.98025 c -0.77676,-0.99063 -0.42915,0.60625 0,0 z m -39.560474,-1.49393 c 0.576268,-2.00502 -1.692952,0.1456 0,0 z m -0.222144,-2.02769 c -0.285704,-0.74171 -0.296547,0.668 0,0 z M 79.04853,171.6195 c -0.725698,-0.19082 -0.412144,1.16355 0,0 z m 1.848111,0.2976 c -0.290178,-2.00152 -1.273117,0.94173 0,0 z m 0.990908,-0.93372 c -0.259227,-2.8267 -0.628557,1.97106 0,0 z m -0.553019,-3.25131 c -0.47184,-1.40367 -1.132106,1.05637 0,0 z m 2.582334,-1.58841 c -0.455716,-0.66471 -0.312689,0.67464 0,0 z m 47.932476,-1.50696 c 1.23528,-3.14759 -2.90521,1.0308 0,0 z m -51.328202,-0.86474 c 0.315383,-1.00034 -0.675084,0.48589 0,0 z m 3.091732,-3.31069 c -0.784743,-2.89373 -1.069249,2.2087 0,0 z m 43.8496,-1.61975 c -0.72298,-2.05834 -0.78225,1.36196 0,0 z m -44.226733,-0.23757 c 0.492497,-1.23238 -2.238551,-1.38479 -2.717968,-3.24992 0.0035,1.68485 0.336627,3.71442 2.717968,3.24992 z m -1.325474,-4.367 c -1.022605,-1.4544 2.586427,-3.84395 0.29049,-4.58131 -1.361405,0.68608 -1.945948,4.65527 -0.29049,4.58131 z m -4.541149,-2.71202 c 0.120787,-2.95256 -2.21412,1.12447 0,0 z m 5.48285,-3.42027 c 2.429301,-2.15859 -1.141222,-3.54925 -0.969706,-1.09927 0.629274,0.27092 -0.01,2.24168 0.969706,1.09927 z m -5.073434,-2.99478 c -0.216323,-0.30385 -0.216323,0.30385 0,0 z m 2.616626,-3.65055 c 0.819417,-1.11749 -2.312247,0.20183 0,0 z m 49.745504,-3.15224 c -0.0638,-2.11287 -1.22615,1.18865 0,0 z m -50.897553,-1.04001 c -0.128294,-0.98508 -0.745656,0.18265 0,0 z m -0.502626,-4.4762 c -0.201316,-0.45718 -0.296781,0.4481 0,0 z m 6.615898,-0.34687 c 0.561174,-2.36764 -0.479044,-5.063 0.417336,-7.31547 -2.076304,1.76523 -0.405431,5.15214 -1.443446,7.4346 0.316097,0.12042 0.781364,0.19209 1.02611,-0.11913 z m -9.405013,-4.62632 c 2.37202,-2.45481 -2.901072,-0.0739 -0.755216,0.66626 z m 33.185914,-1.38063 c 0.64263,-3.31764 -4.6961,-3.69395 -5.71253,-4.57518 1.39196,2.75401 5.03347,1.70848 5.71253,4.57518 z M 73.499055,126.2848 c 1.07154,-1.0904 4.473097,-3.47098 0.599037,-2.46459 -0.293576,0.42711 -2.473427,2.99902 -0.599037,2.46459 z m 37.756085,-0.18951 c 0.31419,-1.85379 -1.30281,0.25233 0,0 z m 3.85841,-0.0299 c 0.46003,-1.85687 -0.88562,0.77284 0,0 z m 2.95736,-0.16653 c 0.63618,-2.65402 -1.82543,1.20971 0,0 z m -17.02207,-1.10898 c 3.21421,-0.53459 -1.140838,-3.53287 0.0712,-0.7197 -0.75204,0.20344 -1.470246,1.00934 -0.0712,0.7197 z m 16.06484,-0.65574 c -0.44136,0.002 0.27664,0.60647 0,0 z m -27.693483,-1.0376 c -0.102389,-0.30966 -0.208812,0.30172 0,0 z m -3.009665,-1.00977 c 0.682274,-2.55612 -1.65134,1.61103 0,0 z m 29.467998,-0.27059 c -0.42144,-0.69895 -0.21475,1.03385 0,0 z m -39.035836,-0.0698 c 1.513905,-2.25965 -1.914625,-0.21098 0,0 z m 14.973569,0.0632 c 0.316017,-1.22373 -1.226954,0.39557 0,0 z m 2.287133,-0.76624 c -0.449581,-0.98168 -0.367093,0.91009 0,0 z m -1.896264,-0.87994 c 0.02389,-0.6383 -0.572662,0.48312 -1e-5,4.6e-4 z m 10.702438,-1.92107 c -0.53094,-0.58035 -0.30796,0.61878 0,0 z m 3.55568,-2.06818 c -0.20634,-0.80784 -0.63844,0.82163 0,0 z m -3.08923,-0.63591 c -0.68142,0.34178 -0.29412,0.8396 0,0 z m 6.35776,-0.0841 c -0.13899,-1.25725 -0.82446,0.91682 0,0 z" />
          <path
             id="path56"
             style="opacity:0.1;fill:#000000;stroke-width:0.0846667"
             d="m 98.098533,202.67968 c -6.562825,-0.48736 -13.130966,-2.44158 -18.185874,-6.81574 -4.479161,-3.15723 -8.736967,-6.90345 -11.381966,-11.7163 -2.0156,-4.1306 -5.090971,-7.77014 -6.161497,-12.36045 -2.142249,-4.08004 -2.274476,-8.84239 -3.307176,-13.27564 -0.308532,-5.99975 -0.743456,-12.15106 0.511455,-18.05324 1.150279,-4.52868 1.577138,-9.34666 3.944013,-13.46219 2.680562,-7.55228 8.689905,-13.2707 14.727011,-18.25058 5.437294,-4.26861 12.391221,-6.12125 19.170022,-6.71142 4.285449,-0.16961 8.490509,0.58384 12.465869,2.17395 4.47541,1.69933 8.48978,4.77938 11.42942,8.54212 3.78195,3.69079 6.38916,8.3556 9.40465,12.64693 4.09986,7.05936 6.43295,15.14329 6.8209,23.29211 -0.93224,4.22985 1.52737,8.614 -0.293,13.05635 -0.89999,4.41902 -1.77452,8.92475 -3.64358,13.04924 -2.2056,6.03218 -5.60549,11.54137 -9.78699,16.41429 -5.00066,6.63872 -12.86732,11.14961 -21.25632,11.30492 -1.49057,-0.0354 -2.968592,0.38507 -4.456937,0.16565 z m -3.692766,-11.11267 c 1.027681,-2.71113 -2.008609,0.0655 0,0 z m 2.924207,-0.52208 c 0.89762,-2.57119 -2.658354,0.16683 0,0 z m 16.403456,-2.29507 c -0.16505,-0.78076 -0.57918,0.42932 0,0 z m -18.160398,-0.0921 c 0.501205,-1.35274 -1.269197,0.29182 0,0 z m -2.642545,-0.40615 c 0.234769,-1.23476 -1.046411,0.36302 0,0 z m 5.967577,-0.0652 c 0.425567,-3.55198 -4.309316,1.19279 -3e-6,-3e-5 z m -18.836298,-0.73004 c 1.904984,-2.25645 -4.022191,-4.81163 -2.705777,-5.99445 2.630703,0.89231 1.588599,-1.40793 0.766593,-2.2226 0.477896,-1.2835 -1.843104,-2.5408 1.192029,-2.60068 -1.06095,1.3119 0.830042,3.33588 2.090844,2.53474 -2.761419,-0.74771 1.965141,-1.94226 -1.08545,-2.28084 1.032672,-2.59563 -2.783468,-4.20713 -1.236843,-0.96396 -0.93286,-0.89903 -1.897885,-3.27897 -1.770323,-4.20349 3.141399,-1.12919 -4.459536,-5.28685 0.446536,-3.00386 0.587063,1.1467 4.261859,1.69642 3.446935,-0.0622 -4.563159,1.54111 1.274332,-4.28158 -2.327134,-3.52743 -1.945874,-0.48802 0.223976,3.84211 -2.286,1.05477 1.30634,-1.54567 4.40826,-3.81274 0.693445,-3.56483 -1.416987,-1.15755 0.570081,-3.22555 2.367437,-1.88836 1.088907,-1.18242 -3.279061,-3.08547 -0.814037,-5.23387 -0.62603,-2.50465 -1.204068,-3.53227 -2.567214,-1.27057 0.118509,-1.37791 -1.891969,-3.96305 -0.163765,-5.14404 2.944367,0.88253 0.709662,-2.20284 -0.701187,-1.13783 4.803972,-1.56802 -3.766235,-6.06028 0.80433,-6.41347 2.264576,0.13836 -1.492633,-1.16645 -0.747033,-2.60724 -2.357756,-1.44779 4.399356,-0.86577 2.240295,-3.53429 -1.120357,3.48525 -5.200771,-1.24737 -3.779386,-1.83693 2.209981,3.33928 3.743082,-2.36169 0.355498,-1.7852 1.702052,-3.41543 -3.972344,-2.87056 -2.038146,0.60208 -3.046713,1.38313 -0.497096,1.4537 0.06011,2.94602 -1.504504,-1.58249 -3.977594,1.41406 -3.837212,2.3104 3.515807,0.0159 -2.663706,2.94325 -0.583467,4.57596 -3.046174,1.72423 -0.0017,1.49176 0.665828,2.86598 -3.556899,-0.68042 -2.158926,3.94716 0.627328,2.19617 1.843466,1.75966 -2.611433,2.01673 -3.158027,0.51417 -1.633265,2.06274 -0.311826,5.07395 -1.723696,6.81827 2.398428,2.04931 0.97424,-4.1142 3.916997,-0.79955 -0.863263,2.15606 -3.711473,2.80609 -1.271248,4.98051 -0.825848,1.51251 -3.466953,2.65135 -1.133648,4.80932 0.742811,3.02809 1.757863,8.02545 4.210463,8.07205 -3.168226,2.44442 2.017616,4.41947 1.333065,7.77371 3.240621,1.89829 2.152744,7.66064 6.731,6.29126 -0.718782,1.56001 0.496687,2.78305 1.980861,1.73027 z m -6.299434,-6.97696 c -0.497305,-1.94478 -2.766408,-4.92956 -5.67e-4,-5.04014 -0.379156,1.07809 2.923121,5.16556 5.67e-4,5.04014 z m -2.406673,-7.33552 c 0.270595,-5.38975 3.914456,1.23807 0,0 z m 0.229809,-3.42097 c -3.024291,-1.68242 1.860768,-4.37308 -0.326272,-1.28479 0.163061,0.46518 2.166202,1.68815 0.326272,1.28479 z m -1.539827,-3.41812 c -0.206456,-0.97816 0.784616,0.2776 0,0 z m -2.165369,-0.85375 c -3.415957,-5.37906 4.096228,1.10261 0,0 z m 1.74443,-2.51443 c -1.768032,-4.41053 2.426697,-0.13654 0,0 z m -2.396526,-1.52225 c -0.102885,-1.30256 1.202975,0.35486 0,0 z m 4.200354,-2.58849 c 0.216323,-0.30385 0.216323,0.30385 0,0 z m 4.305731,-0.127 c -0.646492,-2.60408 0.851008,-2.26779 0,0 z m -6.386467,-0.37542 c -1.848523,-2.21782 -0.59974,-3.45684 0.662853,-0.44992 0.674121,0.52847 -0.453437,0.51469 -0.662853,0.44992 z m 4.773239,-3.94571 c 0.0196,-1.229 1.148941,0.66368 0,0 z m -6.803859,-2.926 c 0.10579,-0.9645 0.956968,0.5065 0,0 z m 2.81606,-0.72272 c -0.387394,-1.40865 0.977944,0.0987 0,0 z m 4.518126,-4.59765 c -1.447304,-3.48734 2.776518,0.0452 0,0 z m -5.418012,-5.54376 c 0.397471,-1.52593 1.998476,0.45692 0,0 z m 2.617741,-1.02248 c 0.563494,-0.27551 -0.183993,0.39828 4e-6,10e-6 z m 1.024558,-1.51555 c 0.0045,-1.77779 2.287577,0.35613 0,0 z m -2.022851,-0.66131 c -0.07898,-1.6248 2.095017,0.49921 0,0 z m 24.307658,49.52577 c 0.318522,-3.60158 5.129846,0.55053 4.078309,-3.49615 1.517007,-0.97506 0.0015,-3.91265 3.047097,-1.98076 2.72477,1.24223 2.15686,0.0106 0.26769,-1.65172 2.25833,-0.23628 4.02902,-1.76109 6.11254,-2.02917 0.20584,1.54398 -4.81825,2.34132 -2.18694,3.14982 1.70721,-0.94922 3.79194,-1.80024 4.40583,-4.12497 2.60109,0.2454 -2.29363,3.78131 1.11737,2.13758 0.84288,-0.68843 1.02332,-3.15438 2.5751,-0.74718 2.16253,1.72476 1.09484,-0.38278 0.0232,-1.49039 0.80807,-1.70025 4.24747,1.95033 1.75422,-1.12926 -3.26715,0.0487 -1.45845,-3.35574 0.34726,-1.07187 1.55604,0.30876 4.57066,1.00908 3.6352,-1.39305 4.14264,0.94337 0.56998,-1.75546 -1.08613,-1.51273 -2.09024,0.0623 -3.29404,-3.24337 -0.51449,-1.2334 1.45011,1.84399 5.93257,-0.58799 4.49778,-2.42525 -2.19923,3.07314 -2.85686,-0.88191 -0.058,-1.69038 2.32141,1.13909 1.15,-1.91319 -0.52795,-2.42862 -1.59885,0.15613 -5.59435,1.68812 -1.83152,0.16403 1.9336,-1.30327 4.55129,0.0606 5.22174,-2.90502 0.61538,-3.15797 -3.63086,1.17177 -2.18493,-1.96235 1.54857,0.71121 2.66484,-1.22746 3.65533,0.0744 -1.48835,-1.54315 -0.36113,-2.6555 1.48023,-3.49949 -0.77239,-0.75426 -5.43832,0.86575 -2.80036,-1.72388 3.7325,1.77237 1.05801,-2.42387 0.82615,-3.07799 3.11565,-1.8924 -0.92067,-2.37332 -1.23268,-3.088 1.69652,0.6897 1.30266,-5.03245 -0.72238,-2.52245 -1.67842,-1.21098 2.95754,-2.13505 0.73356,-4.22289 -1.70025,-1.53729 -2.49544,-3.10292 -4.24255,-1.83477 -1.6874,-0.80056 2.66964,-3.86114 -0.34084,-5.44174 -2.0299,-1.32451 -0.1368,-6.20984 -2.52076,-4.11974 0.51617,-3.49605 -3.86918,3.85325 -2.46642,-0.85648 0.31595,-1.10061 4.4069,-0.81946 1.10235,-1.70626 -1.33019,-2.17749 -2.43362,2.7177 -4.02651,0.28129 -2.23149,-0.40213 -3.11751,1.95537 -0.67833,1.33506 0.98743,0.39273 2.9157,0.67759 0.69655,1.74972 -1.83,-0.21288 -4.106,0.0772 -3.01496,-2.37977 -1.68334,-1.11409 -3.47279,-0.82615 -1.65576,1.13241 -2.16441,-0.48951 -1.92059,-1.11715 -1.33659,-2.64109 -1.02262,-0.96975 -2.63227,0.13248 -3.0297,-2.01553 -2.25954,1.85693 -4.662801,1.64451 -6.625475,-0.0848 -1.573344,-0.40777 -3.171855,0.28072 -1.455058,-1.4202 -1.973026,-2.4257 -4.598941,1.9956 -4.73769,-0.69641 -1.889909,1.82533 -1.057436,3.70481 -3.851613,4.5436 1.725907,3.2184 -2.480969,7.02305 -0.32263,10.4101 3.826058,3.15712 -3.301194,-1.08258 -2.883323,-3.21984 -1.697732,-2.51733 -2.248761,-0.50294 -0.929752,1.24145 -0.631839,3.02448 -1.622348,0.10771 -1.743456,-1.02047 -1.106363,1.44826 0.509828,4.41115 0.162495,6.06917 2.566727,-2.93106 0.299603,1.44001 0.130985,3.05117 -4.628178,1.30273 2.691639,-0.40949 2.519219,2.12264 3.923264,-2.00296 -0.48833,2.74987 -1.132772,2.79968 1.173532,2.97757 -1.668118,8.18296 1.608513,8.54581 -1.324791,2.00523 -0.989156,4.9517 1.325014,2.94592 3.007941,2.16404 -3.77628,1.56398 -1.587594,4.96515 0.256814,2.24641 -1.477653,4.04268 0.07005,4.51576 -2.642304,2.84429 2.963734,7.08682 3.437243,10.54132 -0.582241,1.65437 1.050105,5.3846 0.737428,1.62987 0.669576,-2.88316 -0.603678,-5.1865 -1.946235,-7.35224 0.469187,-2.03534 -0.552659,-9.33053 0.897373,-7.5143 0.41769,2.82553 -1.232745,5.8263 2.326428,7.23418 -0.769103,2.81438 1.513502,4.93341 1.004028,7.72597 0.84152,2.2196 3.155917,4.56633 4.757061,1.82213 2.209814,0.74213 -4.147794,3.167 -0.879891,3.52241 z m 3.149745,-4.76677 c -1.277626,-1.18537 2.200931,0.44282 0,0 z m -6.392336,-0.9694 c 0.204388,-0.58853 0.204388,0.58853 0,0 z m 8.229607,-1.96427 c 0.94827,-2.84729 3.42567,-0.14616 0,0 z m 2.77706,-1.24415 c -0.45622,-1.00814 1.59388,0.20312 0,0 z m 2.79723,-0.65435 c -2.01245,-0.58807 -0.59025,-3.17038 0.199,-0.29688 0.70442,0.0133 0.3577,0.9232 -0.199,0.29688 z m -4.49797,-1.2384 c -1.936209,-2.79106 2.13112,1.18359 0,0 z m 10.73543,-0.056 c -2.37003,-1.49428 1.98117,-1.22805 1.88985,-0.53209 0.36327,1.20557 -1.37914,0.79028 -1.88985,0.53209 z m -4.86025,-0.004 c -1.52643,-2.49465 2.43445,0.30265 0,0 z m 2.17556,-0.42886 c -1.91525,-2.72617 3.50031,0.63546 0,0 z m 9.07806,-1.37509 c -1.70544,-0.42764 -4.59473,-3.93886 -1.52993,-2.12085 1.2649,-0.15327 3.88577,2.04384 1.52993,2.12085 z m -5.79891,-0.66044 c -1.32153,-2.92654 2.40698,1.42073 0,0 z m -6.76227,-0.24226 c -0.58105,-1.93173 4.12568,-0.59787 0.3974,0.13853 l -0.3974,-0.13852 z m 3.76478,-0.31045 c 0.14337,-1.94576 1.5869,0.7659 0,0 z m 4.24801,-1.8973 c 0.28398,-0.77639 1.01714,0.42554 0,0 z m -8.38247,-0.17009 c 0.0718,-1.23372 1.30902,0.14947 0,0 z m 6.02008,0.0231 c -0.18187,-0.87737 1.09573,-0.44586 0,0 z m 3.4206,-1.46189 c -3.29029,-1.34686 2.21314,-1.06078 0.307,0.2385 l -0.30697,-0.23849 z m -13.22285,-0.0599 c -1.42511,-1.35776 2.22717,0.22942 0,0 z m 15.57828,-0.91181 c -1.69533,-2.15894 5.26985,0.69629 0,0 z m -5.79707,-0.17387 c -0.0888,-2.43274 1.63127,0.39958 0,0 z m 1.74843,-1.42211 c -1.06968,-3.23036 2.28845,-0.4451 0,0 z m 1.73061,-0.68767 c -0.31732,-1.66674 1.10863,0.86949 0,0 z m 2.05008,-0.51123 c -0.1377,-1.52971 2.01298,0.34348 0,0 z m -29.211089,-0.73831 c -0.177167,-1.93558 0.832018,-0.1687 0,0 z m 17.831559,-0.63102 c -0.65708,-0.77661 1.3151,0.22734 0,0 z m 6.79812,-0.10742 c 0.62407,-0.23388 -0.075,-0.0372 0,0 z m 3.22278,-0.13978 c -0.2767,-1.32859 0.80093,0.56364 0,0 z m -1.43256,-0.78086 c -0.23366,-1.9789 2.24706,0.77636 0,0 z m -24.43764,-0.30742 c -1.483112,-1.46264 2.201516,-4.56813 0.377851,-1.78778 0.375926,0.48362 0.832692,2.23921 -0.377851,1.78778 z m 27.93547,-0.16891 c 0.57171,-0.471 0.48235,0.40646 0,0 z m -29.887333,-0.13788 c 0.261766,-0.45769 0.150451,0.57464 0,0 z m 33.083503,-0.2822 c -0.42521,-1.03195 1.00885,0.28948 0,0 z m -1.33384,-0.0942 c -0.39037,-4.23021 1.76047,0.54228 0,0 z m -3.33795,-0.59831 c -0.36845,-1.95873 2.21707,0.55248 0,0 z m -3.85297,-0.4117 c -0.33648,-2.56683 2.66222,1.1039 0,0 z m 12.66724,-0.20069 c -0.38314,-0.80272 0.88999,0.34824 0,0 z m -3.2441,-0.31308 c -0.001,-1.5451 0.84285,0.51737 0,0 z m -7.01447,-0.5484 c 0.0461,-1.19122 0.96016,0.49463 0,0 z m -27.046368,-0.58374 c -1.996251,-3.1075 1.377476,-0.57117 0,0 z m 3.296288,-0.27024 c 0.323417,-1.66261 0.512711,0.80949 0,0 z m 18.60658,-0.2963 c -1.29945,-1.98134 1.7052,0.50625 0,0 z m 1.71172,-1.01251 c -0.18442,-0.79538 0.73516,0.64109 0,0 z m -0.66051,-1.08302 c -0.63028,-1.27179 1.16067,0.87682 0,0 z m 11.77471,-0.1208 c -1.84916,-1.35383 3.2211,-0.75298 0,4e-5 z m -29.196517,-0.1383 c 0.05516,-1.00304 0.345448,0.60177 0,0 z m 26.392987,-0.20042 c -0.10884,-1.37002 0.81688,0.76441 0,0 z m -20.976453,-0.56714 c 0.02701,-1.17271 1.04965,0.41782 0,0 z m 15.092353,-0.44463 c 0.0389,-0.61876 0.8472,-0.0354 0,0 z m 7.94552,-0.79005 c 0.21461,-2.25042 2.14446,0.43654 0,0 z m -37.176361,-0.71045 c 0.01182,-1.9692 1.984623,0.8287 0,0 z m 39.287931,-0.62228 c -1.26095,-1.81568 1.7316,0.11476 0,0 z m -17.39589,-0.9128 c -0.13832,-1.47876 1.57251,0.0843 0,0 z m 19.08614,-0.32139 c -0.49814,-1.32258 1.84045,0.56958 0,0 z m -39.854431,-0.53546 c -0.261378,-4.52551 2.421389,-1.20381 0,0 z m 36.830001,-0.42333 c 0.55456,-1.29087 1.24659,-0.49531 0,0 z m -5.57157,-1.20825 c -0.23927,-1.33355 1.5074,0.56947 0,0 z m 7.60454,-0.15798 c -0.52392,-1.55026 1.18204,0.22904 0,0 z m -39.410483,-0.87996 c -0.41047,-1.29187 1.272705,0.36287 0,0 z m 26.266993,-0.61392 c -0.0458,-1.96232 1.28945,0.58582 0,0 z m 8.18861,-0.0341 c -0.42412,-1.70913 2.09579,0.81188 -10e-6,-4e-5 z m -2.51238,-0.34542 c -1.81553,-1.90654 3.35037,-0.34559 0,0 z m 6.66901,-0.51622 c -0.56459,-1.46505 1.9595,0.352 0,0 z m -14.39986,-0.13784 c 0.78497,-0.68757 -0.046,0.61008 0,0 z m 9.16038,-0.83215 c -0.37828,-2.88798 3.37074,-1.89668 3.45211,-0.14784 -0.82524,-1.3826 -2.46418,0.2986 -3.45211,0.14784 z m -3.55104,-0.50423 c -0.0834,-1.08358 0.54736,0.78586 0,0 z m -4.3162,0.002 c -0.52579,-0.6027 1.00885,0.36224 0,0 z m 6.25437,-0.77827 c -0.004,-1.65954 1.41507,0.67699 0,0 z m -3.49145,-2.38192 c -3.24793,-2.58108 1.34616,-2.30389 0.8016,0.40065 l -0.40538,0.0433 z m 11.73144,0.34342 c -0.27583,-1.17165 0.93401,-0.53172 0,0 z m -14.82243,-1.25964 c -0.0625,-1.66091 2.99318,0.002 0,0 z m 5.37869,-0.10526 c -0.60352,-2.06097 2.05786,0.33273 0,0 z m -10.1684,-0.43902 c 0.20445,-0.58856 0.20448,0.58854 0,0 z m 4.10633,-0.0847 c 0.0483,-0.73593 0.50762,0.50645 0,0 z m 10.12105,-0.0383 c -0.17177,-1.29932 1.51233,0.44711 0,0 z m -18.66505,-0.0729 c -0.21899,-1.21282 1.36508,0.36634 0,0 z M 91.012636,140.6913 c -1.106968,-2.28596 1.693961,0.42331 0,0 z m 31.469894,-0.22848 c 0.32456,-0.71977 0.40243,0.56881 0,0 z m -36.798311,-0.0487 c 0.05965,-1.61906 1.185413,0.45812 0,0 z m 14.418091,-0.0169 c -0.260636,-0.38346 0.3725,0.0724 0,0 z m 15.45478,-0.71955 c -1.95503,-2.52593 1.90742,0.46715 2.5427,-1.31487 4.84285,1.10921 -1.58147,1.71629 -2.5427,1.31487 z m 0.67042,-2.71889 c -0.42292,-1.15605 0.98856,0.14897 0,0 z m -2.01014,-0.3534 c 0.23685,-0.9074 1.19969,0.36955 0,0 z m -3.65808,-0.49634 c -0.44459,-1.69539 1.74094,0.47676 0,0 z m 5.27192,-1.53475 c 0.13997,-1.91108 2.00992,0.61406 0,0 z m -4.64533,-0.8728 c -1.9657,-2.05341 -0.14875,-2.34144 0.73704,-0.85062 0.13575,0.62801 0.0477,1.73361 -0.73704,0.85062 z m 2.49132,0.15467 c 0.56339,-1.75089 1.24875,0.703 0,0 z m 4.91066,-0.23058 c 0.45889,-1.46314 2.8305,-0.34853 0,0 z m -3.87535,-1.55577 c 2.91623,-2.98853 1.38607,1.95963 0,0 z m -2.26298,0.18908 c -1.50002,-1.37795 2.66902,0.34456 0,0 z M 88.869863,131.0392 c 0.663206,-1.33645 1.428873,0.56127 0,0 z m 14.669017,-1.50543 c -1.83039,-1.31421 4.22181,-0.3082 0,0 z m -7.303017,-1.1384 c 0.724939,-0.50115 0.877233,0.35708 0,0 z m 3.683,0.0356 c 0.375237,-0.79878 1.493077,0.31998 0,0 z m 1.206927,-0.025 c -0.17716,-1.42912 2.36824,-0.026 0,-2e-5 z m 4.12723,-0.50425 c -2.03713,0.1573 -3.39755,-2.82542 -1.11332,-1.11001 -0.48299,0.46307 2.21817,1.1621 1.11332,1.11001 z m -6.728918,-1.03033 c -2.741576,-1.79968 1.370823,-0.46625 0,3e-5 z m -4.965399,-2.71205 c 0.171117,-0.90064 0.947634,0.5295 0,0 z m 4.134895,61.88071 c 0.02183,-1.68489 -1.391257,0.94518 0,0 z m 3.532962,-1.59695 c 4.34336,-1.68305 -3.124877,0.0605 0,0 z m 5.05875,-1.52401 c 0.28348,-2.27953 -2.55937,0.76025 0,0 z m -2.62721,-0.26482 c -0.16345,-1.17774 -0.55456,0.7935 0,0 z m 7.59841,-1.49715 c 0.42798,-3.08667 -2.0543,0.72398 0,0 z m 6.88266,-1.54193 c 0.20928,-2.32904 -1.54501,1.54188 -2e-5,2e-5 z m -4.36281,-0.10102 c 0.54662,-1.44707 -1.63504,0.38231 0,0 z m -27.023163,-1.76988 c -0.592033,0.11921 0.04917,-0.11678 0,0 z m 32.156403,-0.81668 c 0.17381,-2.24139 -2.17041,0.53231 0,0 z m 2.73805,-1.08373 c 0.46993,-0.97405 -1.59392,0.18345 0,0 z m -39.522914,-1.50839 c 1.011213,-2.40096 -2.612237,-0.093 0,0 z m -0.191906,-1.9274 c 0.584022,-5.0595 -1.603064,-0.9452 0,0 z m -1.007133,-0.17567 c 0.70036,-2.18957 -2.063577,-0.0126 0,0 z m -1.933378,-0.24549 c 0.582221,-1.6983 -1.556753,1.08402 3.1e-5,-3e-5 z m 2.409944,-3.94932 c 0.378028,-2.06103 -2.056857,0.46884 0,0 z m 2.5625,-1.59471 c 0.631978,-1.44967 -1.713182,0.0453 0,0 z m 47.982317,-1.73113 c 1.1405,-3.79596 -3.15341,1.39725 0,0 z m -51.327159,-0.84406 c 0.178999,-1.88316 -1.191599,0.71132 0,0 z m 2.908124,-2.95918 c 0.887858,-3.2277 -2.332189,-0.009 0,0 z m -0.14206,-2.24911 c 0.834842,-1.60476 -2.523419,-1.22788 -2.754015,-3.43661 -1.043092,1.13676 0.686879,4.55558 2.754015,3.43661 z m -1.400745,-4.33563 c -0.562151,-1.0432 2.833794,-5.72982 -0.283578,-4.39204 -0.758613,0.62116 -1.982176,5.10073 0.283578,4.39204 z m -4.583862,-2.6484 c 0.539643,-3.57996 -2.889585,1.06093 0,0 z m 5.530208,-3.47489 c 2.37083,-2.18073 -1.067843,-4.0056 -1.211752,-1.15503 0.627972,0.33897 0.05915,2.47908 1.211752,1.15503 z m -5.011821,-2.97019 c -0.14075,-1.14275 -0.964474,0.64598 0,0 z m 2.710765,-3.72124 c 0.167383,-1.9887 -2.707199,0.8352 2e-6,0 z m -2.783451,-2.30469 c -0.530456,-0.5633 -0.280661,0.61192 0,0 z m 52.277501,-0.508 c 0.85069,-2.75416 -2.14268,-0.16702 0,0 z m -50.871308,-1.25789 c 0.456854,-1.45855 -1.46131,-0.15355 0,0 z m -1.504946,-3.04002 c -0.110346,-1.07333 -0.724559,0.56941 0,0 z m 1.077349,-1.49031 c 0.19221,-1.22245 -1.034492,0.62347 0,0 z m 6.677868,-0.42367 c 0.439768,-2.41617 -0.242673,-5.21783 0.359089,-7.48303 -2.452257,1.58253 -0.648088,5.36768 -1.598492,7.67458 0.337418,0.27782 0.99014,0.16178 1.239403,-0.19155 z m -9.467733,-4.57875 c 2.255471,-4.50928 -4.07573,2.67942 0,0 z m 33.18953,-1.35377 c 0.63305,-3.56971 -4.18987,-3.81549 -6.11683,-4.89055 1.43095,2.83327 5.1926,2.34635 6.11683,4.89055 z M 73.609327,126.3605 c 1.368749,-1.13236 4.444933,-3.71066 0.427521,-2.66338 -0.470739,0.47136 -2.734209,3.54537 -0.427521,2.66338 z m 37.771533,-0.25137 c -0.0336,-2.99075 -1.84639,1.20819 0,0 z m 3.85787,0.0166 c 0.56829,-1.81743 -1.42991,0.5162 0,0 z m 2.92223,-0.13739 c 0.77269,-2.48574 -2.13586,0.95529 0,0 z m -17.09909,-1.02913 c 3.68152,-0.59591 -1.412286,-3.89155 -0.0504,-0.95554 -1.25475,0.112 -1.125403,1.35425 0.0504,0.95554 z m 16.25599,-0.58574 c -0.37602,-1.40936 -0.85793,0.8214 0,0 z m -27.785081,-1.17109 c 0.161991,-1.19696 -1.046054,0.61987 0,0 z m -3.014911,-1.03046 c 0.715156,-3.0811 -2.179714,1.7665 0,0 z m 29.375162,-0.0622 c 0.47427,-1.41563 -1.23072,0.50523 0,0 z m -39.119251,-0.1199 c 2.641054,-3.39826 -2.745455,-0.71186 0,0 z m 15.117462,-0.0934 c 0.490376,-1.79153 -1.718063,0.60475 0,0 z m 2.295692,-0.51018 c 0.345012,-1.70888 -1.502423,0.10125 0,0 z m -1.880712,-1.12541 c 0.24181,-1.27225 -1.197943,0.6702 0,0 z m 10.654589,-1.7847 c 0.35448,-1.20697 -1.25158,0.24716 0,0 z m 3.53422,-2.03907 c 0.51968,-1.32508 -1.24745,0.24604 0,0 z m -3.13129,-0.50578 c 0.42605,-1.76585 -1.32595,1.27907 0,0 z m 6.35674,-0.1796 c 0.73265,-1.8248 -1.56631,0.22342 0,0 z" />
          <path
             id="path54"
             style="opacity:0.1;fill:#000000;stroke-width:0.0846667"
             d="m 96.040196,201.92061 c -5.834474,-0.63078 -11.509471,-2.72167 -15.975666,-6.60358 -4.943065,-3.56575 -9.703935,-7.83837 -12.426466,-13.38085 -2.510278,-3.29911 -4.181302,-7.18996 -5.345491,-11.19821 -2.244995,-5.20673 -2.345954,-10.98713 -3.315539,-16.49968 -0.174148,-3.52163 -0.373232,-7.05069 0.401877,-10.51263 0.478945,-4.68828 1.504527,-9.36622 3.079304,-13.81979 2.351383,-7.27186 7.373402,-13.26827 12.759557,-18.52886 5.175706,-4.44359 11.55107,-7.36988 18.312949,-8.3008 3.103844,-0.7995 6.354453,-0.39923 9.512099,-0.35517 4.64509,1.30209 9.58471,2.37086 13.20377,5.80079 3.34014,2.66472 6.17343,5.99568 8.72385,9.41861 2.87413,4.15165 5.94848,8.17742 7.90755,12.87738 2.63821,5.75612 3.67561,12.14041 4.23842,18.40844 -0.0236,4.47876 0.59896,8.99212 -0.52432,13.45558 -1.15851,4.68842 -2.10767,9.48461 -4.37063,13.79706 -2.92322,7.79728 -8.31322,14.49262 -14.39556,20.08599 -4.20898,3.00811 -9.09091,5.03441 -14.28559,5.35448 -2.44994,0.38609 -5.049709,0.37953 -7.500114,0.001 z m 1.686605,-8.23323 c 3.519249,-2.53682 -2.610754,-0.30413 -0.306464,0.33419 l 0.306464,-0.33424 z m -3.124462,-1.98818 c 1.427441,-4.48787 -2.782908,0.21607 0,0 z m 2.880902,-0.63499 c 0.578666,-3.26403 -2.961198,0.58399 0,0 z m 6.965289,0.189 c -0.33047,-0.30942 -0.33047,0.30942 0,0 z m -15.832667,-1.17627 c -0.341955,-0.72331 -0.541563,0.58077 0,0 z m 11.853337,-0.17079 c -0.27499,-1.98097 -1.492968,0.8141 0,0 z m 13.42113,-1.02823 c -0.47174,-1.632 -1.41823,0.85085 0,0 z m -17.910105,-0.16406 c 2.43955,0.76458 3.058466,-0.93121 3.490915,-2.35513 2.33966,1.70179 -2.030096,-4.076 0.78962,-2.1232 2.31845,2.19259 4.31731,-3.77362 5.71353,-0.86161 1.20615,-1.37975 3.26856,1.80562 2.34143,-1.49277 1.19524,-2.02618 3.98311,0.88456 3.06699,-2.53251 1.86867,-1.42565 1.18865,2.39864 3.01091,-0.0123 1.89536,2.16792 2.17785,-3.65737 4.86241,-2.12082 -1.54716,-2.5508 1.76086,-2.72731 1.65819,-0.90014 3.12745,-0.24832 -3.13917,-3.79368 0.90459,-2.96349 2.59362,0.16313 -2.99226,-2.97329 0.82296,-3.06756 2.89295,-2.89603 1.34068,-7.50171 4.53091,-10.61664 1.83336,-1.96235 1.94377,-2.70872 -0.28818,-2.23381 1.12198,-0.88101 4.06972,-2.62288 0.3268,-2.40307 -0.70598,-0.54475 4.39278,-1.74679 1.2789,-3.7429 -1.01984,-1.99909 2.51067,-2.31528 -0.54876,-3.10631 0.90423,-2.05524 -2.23736,-1.02088 -0.88022,-3.56844 -2.58112,-0.28259 1.51141,-4.19875 -2.13346,-4.25591 -0.44331,-2.50185 -2.77598,-1.85135 -3.88296,-1.59113 1.47072,-1.49255 1.35332,-2.4037 1.44053,-4.02765 3.06781,1.45131 -3.76566,-2.28707 -1.04055,-4.37436 -2.40915,-0.30395 0.59434,-4.99487 -3.03021,-3.50164 0.95629,-1.79649 -2.79928,-4.96239 -1.45205,-1.07309 -1.74205,0.6913 -2.41655,-5.21816 -2.54426,-1.28121 0.57596,2.8632 -4.56975,-2.89401 -4.00202,1.87351 1.66534,1.4273 1.72557,-3.41671 2.45362,-0.18607 1.72921,-0.45352 2.89807,2.53652 0.67659,0.92752 -2.66295,0.48922 -5.09597,1.05119 -4.08018,-2.3803 2.25662,-1.03707 0.37456,-4.09093 0.27264,-0.8824 -2.78363,0.40578 -5.36293,-3.38149 -7.87196,-2.69881 -1.19259,2.71861 -4.520605,-0.79205 -6.033146,1.02001 -3.023168,-0.55124 -0.194668,-5.44703 -3.344982,-2.92336 -2.06347,0.24147 -1.527236,4.70112 -2.729698,1.42613 -0.376879,2.46429 -3.267877,5.76913 -2.011836,8.51829 -3.777297,2.17808 -0.993354,-4.28375 -2.012015,-4.74285 -2.262852,2.27344 -0.587073,5.60671 -1.958993,8.12139 -4.096435,0.16346 -1.741301,5.20857 -2.233969,8.02662 2.453586,1.6766 -4.12161,4.70045 0.422836,3.59122 3.06907,-0.3118 1.934519,1.59679 -0.239966,1.89378 -0.435775,1.12095 1.00106,3.53729 -0.848691,4.44938 0.463957,2.45492 -2.952995,8.55682 1.784116,8.56011 -1.20776,3.22352 4.279794,0.63214 1.593889,3.82613 0.121023,1.0679 0.84782,4.58714 -0.550514,1.69929 -0.741471,-2.32415 -1.459688,3.23551 0.900744,2.38155 -2.934923,3.51664 2.340146,7.62648 1.472516,11.46301 3.167459,-1.61252 1.277208,6.97595 3.427505,4.45922 -0.299303,-3.22769 -0.307744,-6.50761 -2.211748,-9.13865 -0.05256,-3.25742 3.9967,0.64076 2.675388,2.43047 0.628752,3.60006 1.425593,7.31484 3.092495,10.18961 -1.313828,2.34932 0.119306,2.78267 0.31015,0.42242 2.119016,-0.6534 0.373925,3.33059 2.609194,1.87848 z m -0.299418,-1.22364 c -0.06031,-4.83311 2.200686,0.68557 0,0 z m 5.268173,-4.16745 c -0.11355,-1.8346 2.21765,0.47202 0,0 z m 5.53155,-0.97659 c -2.38447,-1.43255 3.62546,-3.03709 0.73543,-0.004 l -0.25974,0.17046 z m -3.35595,-2.31105 c -0.13555,-1.16804 1.21611,0.76832 0,0 z m 5.78306,0.0703 c 0.54034,-2.47137 3.22279,0.7453 0,0 z m 5.02356,-1.38288 c -3.48638,-1.1332 1.4992,-1.54201 0,0 z m -6.62824,-0.13713 c -0.002,-1.46071 1.79276,0.23135 0,0 z m 7.82341,-1.02804 c -1.24068,-3.20975 3.07587,0.5823 0,0 z m 2.13344,-1.33743 c -1.4559,-0.79817 -4.08534,-3.13724 -0.7788,-1.62864 1.24071,0.007 3.21332,1.65546 0.7788,1.62864 z m -10.19924,-0.43546 c -0.78352,-1.75632 1.78337,0.41597 0,0 z m 2.18775,-0.41049 c -1.04142,-1.68969 2.09339,0.55672 0,0 z m 7.98596,-2.00382 c -1.91877,-2.72472 3.37275,0.70557 0,0 z m -1.67558,-0.87543 c -0.76917,-2.22029 1.89803,0.16806 0,0 z m 3.96063,-1.01084 c -0.285,-1.55088 1.28053,0.78425 0,0 z m -1.97931,-1.10423 c 0.0736,-0.86697 0.88824,0.73205 0,0 z m -30.017021,-1.7654 c -0.351122,-1.77321 1.537065,0.45641 0,0 z M 117.2967,168.4711 c -0.49909,-1.62803 2.05154,0.44405 -3e-5,0 z m 4.88815,0.005 c -0.72655,-3.29703 2.04575,-0.527 0,0 z m -10.59589,-0.29984 c 0.16345,-1.17774 0.55456,0.7935 0,0 z m 11.36575,-4.34745 c 0.0589,-1.45083 1.63944,0.7939 0,0 z m -6.70482,-2.24546 c 0.14849,-1.10694 1.16456,0.51885 0,0 z m -30.618527,-0.39319 c -0.66963,-2.92263 2.829505,0.45708 0,0 z m -2.033447,-1.58071 c -0.645829,-2.35552 1.665449,-0.12406 0,0 z m 41.953164,0.0502 c 0.0408,-2.28014 2.49366,0.70943 0,0 z m -43.197571,-2.35177 c -0.604164,-2.08207 2.72952,0.24085 0,0 z m 1.893399,-0.0398 c -0.229676,-1.59657 1.300702,0.22756 0,0 z m 38.066292,-0.64306 c 0.62208,-2.27812 1.91048,0.90811 0,0 z m -40.887839,-0.65429 c -0.336023,-1.71417 2.753238,-6.52971 2.088982,-1.50546 0.125431,0.87713 -1.294976,2.49418 -2.088982,1.50546 z m 44.076949,-0.41816 c -0.22751,-1.58367 1.77122,0.22729 0,0 z m -3.64067,-0.84667 c -0.12677,-1.69974 1.66381,0.17209 0,0 z m -4.76757,-7.09896 c 0.22825,-1.19703 1.23205,0.55058 0,0 z m -33.175473,-0.46268 c 0.102569,-3.72831 4.561303,-1.05751 0,0 z m 34.895043,-0.98969 c -0.13732,-2.37441 2.19307,0.1547 0,0 z m -0.84765,-6.78706 c -0.48067,-1.68119 2.02283,0.58381 0,4e-5 z m -35.617404,-2.85317 c -0.402452,-5.52513 2.656947,0.60975 0,0 z m 2.595292,-1.63716 c -1.34173,-1.89952 1.556869,-2.93822 1.767652,-4.80088 2.124086,0.044 -0.633831,5.76647 -1.767652,4.80088 z M 111.34806,133.564 c -0.44719,-2.03753 1.32771,0.6294 0,0 z m 4.97497,-3.58515 c -0.078,-2.41636 2.23314,-1.03003 0,0 z m -6.17335,-0.32574 c 0.16242,-1.35192 0.91671,0.5804 0,0 z m 8.78839,-0.99653 c 0.10088,-2.41025 2.70882,0.26286 0,0 z m -11.55505,-2.32107 c -0.0347,-2.02184 -3.50809,1.22197 -1.91672,-1.57663 1.3566,-0.97249 4.16542,1.63962 1.91672,1.57663 z m -4.48268,-1.51291 c 0.0121,-3.42325 2.40428,0.0336 0,0 z m -4.759477,-0.78839 c -3.568967,-0.69159 3.987707,-2.35502 1.121831,0.0635 l -0.443044,-0.0248 -0.678789,-0.0387 z m -5.556451,-2.2707 c -0.778584,-3.02022 1.492309,0.69961 0,0 z M 80.31853,188.12724 c 2.939829,-2.0777 -4.802213,-6.19074 -0.160233,-6.542 -0.105004,2.61425 4.190725,3.84833 1.953335,0.88664 0.927339,-2.26915 -2.047729,-7.28108 1.180234,-7.25686 -0.420564,2.04136 1.607362,4.21689 0.645886,0.7884 -1.814801,-3.52313 -2.172243,-7.86673 -2.722394,-11.8975 -0.238192,-1.94989 -0.195586,-3.92929 -2.48547,-5.34859 0.968305,-2.4767 -1.252854,-5.5494 -0.441784,-7.67946 0.123481,-1.67832 0.530678,-4.10559 -1.147798,-4.38047 0.674232,-1.2936 1.833147,-2.32089 -0.04924,-4.10684 0.90578,-2.07839 1.277101,-3.72163 1.221835,-5.18535 3.529696,1.80106 -2.134303,-3.53726 1.020496,-4.65608 -0.150744,-1.89041 -3.268217,2.15997 -2.023665,-0.7158 2.528062,-1.28244 -1.594482,-1.92276 1.355959,-3.49172 2.046458,-3.2534 -0.804335,-4.25382 -0.924894,-6.93547 1.054973,-1.23331 1.294004,3.52976 2.395252,0.40355 -0.654839,-3.6582 -5.393544,-2.0016 -4.954355,0.92407 -4.670081,-0.22591 -2.144839,6.54836 -4.874107,7.61459 1.384946,2.84467 -3.332754,3.48701 -0.988839,5.34662 -3.413201,0.68403 -2.377605,6.24461 -3.540569,9.12578 -0.713225,3.58785 -2.269713,7.28716 -1.183154,10.32359 1.108166,1.38024 -1.60655,3.17835 0.286955,4.86033 -0.417624,2.87981 1.619385,5.88574 1.555105,8.70778 2.801769,3.33718 2.76779,8.10871 5.55981,11.63044 1.977674,2.12697 2.011854,5.88446 5.266213,5.94174 -0.200571,2.06081 1.600491,2.04345 3.055425,1.64261 z m -1.507067,-8.23629 c -0.387262,-2.47572 2.547381,0.63938 0,0 z m -5.031351,-1.059 c -2.984307,-5.39813 2.9915,1.12597 0,0 z m 5.779168,-5.77693 c 0.03004,-1.41381 0.988302,0.56049 0,0 z m -7.905961,-0.32931 c 0.413791,-3.74716 2.836709,0.98285 0,0 z m 6.162985,-11.02854 c 0.05881,-1.08571 0.594006,0.70114 0,0 z m -11.281508,-6.69822 c -0.519617,-2.13157 1.644322,0.22321 0,0 z m 2.041268,-6.81025 c 0.18897,-1.2866 1.345094,0.57895 0,0 z m -1.084535,-3.41749 c 0.590241,-0.28867 -0.0096,-0.053 0,0 z m 7.594601,-2.1336 c -0.100752,-1.34364 1.480982,0.0613 0,0 z m 1.100666,-13.716 c -0.429012,-2.5047 3.157511,-0.0884 0,0 z m 1.350744,-1.65209 c -1.09051,-3.09528 1.910928,-0.91623 0,0 z m -3.343232,-0.25009 c -0.443237,-2.46402 4.778093,-2.30275 1.213559,-0.58699 -0.281798,0.23738 -0.740876,0.81344 -1.213559,0.58699 z m 27.073712,61.01855 c 0.70245,-0.87292 -1.21848,0.12124 0,0 z m -10.583869,-0.54639 c -0.447638,-0.5981 0.08218,1.00258 0,0 z m 22.696709,-1.53004 c -0.571,-0.73024 -0.83826,0.80993 0,0 z M 90.208877,185.3457 c -0.715618,-1.49128 -1.212521,0.92069 0,0 z m 25.669653,-0.10382 c -0.37979,-0.0195 -0.14605,-0.0335 0,0 z m -6.94267,-0.80433 c -0.34303,-0.74008 -0.36822,0.72909 0,0 z m -18.022345,-1.21602 c 0.628198,-1.28394 -1.518549,0.71381 0,0 z m 20.139015,-0.64584 c -0.6278,-1.066 -0.45391,0.99115 0,0 z m -26.162,-0.18476 c -0.386047,-1.61223 -0.726434,0.99713 5e-6,0 z m 33.08971,-0.47923 c -0.33522,-0.5155 -0.33236,0.59281 0,0 z m -30.425644,-0.45865 c 0.756703,-3.23196 -2.64463,-1.00518 0,0 z m 30.579304,-1.62984 c 1.83628,-2.94034 -2.53714,0.63683 0,0 z m -34.700647,0.14817 c 0.724756,-2.41826 -1.9033,0.68217 0,0 z M 125.3612,167.68142 c -0.58953,-0.96369 -0.93629,0.46949 0,0 z m 6.42976,-2.5815 c 2.71399,-3.05229 -3.63753,-1.33643 -0.39124,0.18597 l 0.39123,-0.18592 z m -48.40228,-1.89254 c -0.143896,-1.31792 -0.69272,0.30004 0,0 z m 48.60713,-6.45583 c 0.0458,-1.15576 -0.87268,0.62524 0,0 z m -0.0459,-4.6355 c -0.65322,-0.78312 -0.2686,0.70066 0,0 z m -0.30646,-4.38985 c -0.11443,-2.0477 -1.13878,0.91966 0,0 z m -51.753712,-5.56096 c 4.616982,-2.14889 -4.662643,-2.52746 0,0 z m 50.431622,-3.36712 c 0.72625,-3.60867 -3.0808,-0.048 -0.25128,0.34392 z m -1.66607,-3.69349 c -1.53225,-3.03583 -0.0628,2.26865 0,0 z m -1.17837,-2.1433 c 0.76498,-2.13214 -2.91237,-4.65409 -0.98899,-1.86738 1.18096,0.0301 0.0191,2.30596 0.98899,1.86738 z m -45.416742,-1.29229 c 2.104899,-1.48298 -0.951628,-4.87727 0.205425,-1.12999 -0.161582,0.37005 -1.455393,1.63729 -0.205425,1.12999 z m 5.313117,-7.84455 c -0.0097,-0.63206 -0.400818,0.37784 -6e-6,-1e-5 z m 32.006715,-0.9188 c -0.18384,-1.35868 -1.21662,0.86709 0,0 z m -33.05515,-0.28773 c 2.633375,-2.9455 -1.894863,-1.46372 -0.437256,0.47857 l 0.437256,-0.47859 z m 29.54595,-0.27438 c 0.99753,-2.77379 -2.56284,1.74086 0,0 z m -7.40016,-0.51779 c -0.44383,-1.51678 -2.0123,-0.81847 0,0 z m 9.27054,-1.43858 c -0.20447,-0.58854 -0.20447,0.58854 0,0 z m -12.83305,-0.13305 c 0.5529,-2.64431 -2.3738,0.54589 0,0 z m -2.67895,-0.39612 c 1.54893,-1.94661 0.0595,-2.55366 -0.25113,-0.52756 -1.12763,-0.0546 -0.18008,0.9629 0.25113,0.52756 z m 7.53891,-0.127 c -0.40779,-1.43244 -0.98351,0.93187 0,0 z m 5.39075,-0.27516 c -0.21708,-0.31371 -0.32547,0.30366 0,0 z m -3.9978,-0.67477 c -0.0164,-1.91668 -0.93722,1.0621 0,0 z m -10.52253,0.0446 c -0.53192,-1.71959 -0.782218,0.30017 0,0 z m -13.951311,-0.36467 c -0.0308,-1.1446 -0.680384,0.57947 0,0 z m 20.728031,0.0194 c 1.89433,-2.12096 -1.63362,0.14193 0,0 z m -9.979542,-0.51937 c 0.651272,-1.74134 -1.674803,0.49921 0,0 z m -1.986983,-0.80547 c 0.13075,-1.42318 -1.423474,0.78639 0,0 z m 11.121255,-0.59958 c 0.47989,-2.11424 -1.58243,0.53872 0,0 z m -3.18637,-0.4174 c 1.00449,-2.79268 -1.972,1.22211 0,0 z m -2.96939,0.14469 c -0.18996,-1.10611 -1.105781,0.59051 0,0 z m 9.4908,-0.65347 c 1.15741,-3.81719 -2.76764,1.64154 0,0 z m -2.84172,-1.27199 c 0.14228,-1.51809 -1.1533,0.74633 0,0 z m -12.657809,-2.47401 c 0.855685,-1.98297 -1.709916,0.81416 0,0 z" />
          <path
             id="path52"
             style="opacity:0.1;fill:#000000;stroke-width:0.0846667"
             d="m 96.12486,201.83594 c -6.587241,-0.56087 -12.722566,-3.53815 -17.667044,-7.84607 -5.411897,-3.92008 -9.614563,-9.2493 -12.592676,-15.201 -3.751069,-6.39403 -5.523774,-13.74002 -6.273334,-21.07013 -1.7497,-9.41596 0.165218,-19.12256 3.044878,-28.12052 2.474552,-7.13511 7.408432,-13.09362 12.789523,-18.24417 8.002866,-6.7807 19.149064,-10.1232 29.499083,-8.08189 5.08072,1.36615 10.0454,3.45932 13.63769,7.45741 5.72152,5.79093 10.53122,12.56759 14.11049,19.8777 3.05382,6.8564 4.39262,14.44676 4.30698,21.9118 1.01315,6.86348 -1.27176,13.684 -3.25759,20.1608 -3.09281,8.71617 -8.21737,16.78026 -15.13338,22.95562 -6.08077,5.3613 -14.57788,7.1013 -22.46462,6.20045 z m 1.687997,-8.06389 c 2.745693,-1.97838 -0.823231,-1.49682 -0.894253,0.10025 z m -3.316452,-1.80943 c 2.515562,-4.57343 -3.232874,-1.24876 0,0 z m 10.013245,-0.55039 c 0.11806,-0.95413 -0.90986,0.37563 0,0 z m -7.068999,-0.15615 c 1.343135,-3.52997 -3.33252,0.0275 0,0 z m -8.706866,-1.04003 c -0.136413,-1.35942 -1.27175,0.6435 0,0 z m 11.736085,-0.10665 c 0.45546,-2.70439 -2.40401,0.38333 0,0 z m 13.41295,-1.02123 c 0.35906,-1.94486 -2.07558,0.31176 0,0 z m -17.878787,-0.26358 c 2.367292,0.92159 4.065547,-2.02047 4.136247,-2.96481 -2.237791,-3.84492 2.17844,0.99257 3.43253,-2.3294 1.47637,-1.88637 3.63662,0.98726 5.01973,-0.43734 -0.86208,-3.224 4.12731,-0.42048 3.20841,-3.84837 2.64689,2.33294 4.5774,-0.87604 7.19598,-2.3134 -0.11082,0.23534 0.24756,-3.26751 1.71,-1.11606 1.55437,1.95612 1.27559,-1.58695 -0.17751,-2.36926 2.93137,0.35498 1.5006,-0.95353 0.94844,-2.76476 1.80969,-0.30556 4.26428,-3.25638 3.13351,-3.89057 -0.92291,-3.59721 4.09072,-7.16351 3.53844,-9.62452 -3.02845,1.30297 4.11002,-2.83913 -0.73738,-2.24048 2.47269,-1.19612 2.35601,-2.98568 1.02148,-4.69241 2.59917,-2.1337 -2.46637,-2.89455 -1.49079,-5.83869 -1.58429,-0.89133 0.98849,-4.60917 -2.07688,-4.22444 0.53838,-3.21099 -5.88102,-0.20808 -2.29946,-3.18351 0.29694,-0.80235 -0.76061,-2.78619 0.83709,-1.40528 -0.0285,-1.94101 -4.05835,-3.21171 -1.7083,-5.28135 -2.15021,-0.45031 -0.43932,-4.85756 -3.43284,-3.7805 1.68909,-2.22 -3.13625,-3.86947 -1.38504,-0.81572 -3.48341,-0.43746 0.56128,-6.95904 -2.26646,-2.80454 0.40369,3.73345 -1.63822,1.84601 -3.33128,1.2683 -1.91428,1.50981 0.28972,4.21833 0.92723,1.07781 0.98293,1.66679 4.13769,2.31625 0.50416,2.08581 -3.07331,0.24833 -4.10012,-0.34058 -2.33225,-3.28316 0.67768,-3.71652 -0.62283,0.11552 -1.93711,-0.45049 -2.39831,-0.30141 -6.22231,-4.89438 -8.06131,-1.17879 -2.771766,-1.19663 -6.460727,-0.009 -6.682766,-3.93478 -2.373178,-0.59 -2.968452,5.17362 -3.984477,1.99893 -1.299527,2.94068 -2.10574,6.52161 -3.107677,9.05411 -2.302339,-0.80598 0.762721,-7.38219 -1.958853,-3.5639 -0.250535,3.30336 -0.360386,6.46245 -3.364745,8.05569 -0.603426,2.28965 1.798159,7.5212 -2.073982,6.1374 -1.661482,3.53176 2.088168,1.26545 2.722851,1.41229 -0.69488,1.97508 -3.376588,3.34682 0.539736,2.82384 3.648909,0.11959 -3.17802,1.82967 -0.885453,4.28546 -0.49339,3.21823 -3.689225,9.51628 1.042841,11.08782 0.06845,1.76785 4.062376,1.41228 1.321093,3.53703 1.203902,3.19606 -0.0594,2.00074 -0.614044,-0.33585 -1.81754,3.09272 2.165018,3.85908 0.25595,6.41801 1.146701,3.92096 2.040793,8.19904 4.609812,10.8542 -1.414812,3.12931 1.190785,3.52447 3.557127,3.11347 1.061064,1.41799 1.12008,3.88522 1.00782,5.18286 1.96982,-5.94784 0.803103,2.6194 3.23813,0.27935 z m -0.230026,-1.40601 c -1.00713,-3.06131 2.091729,-0.34926 0,0 z m 5.233083,-4.25293 c 0.33379,-1.28255 1.21376,0.72112 0,0 z m -11.426027,-0.3283 c 0.693496,-3.4935 -2.271234,-7.47629 -1.498434,-10.14536 2.591081,2.0272 2.624648,6.72971 2.596314,9.94043 -0.262301,0.32127 -0.740311,0.30876 -1.09788,0.20493 z m 16.899467,-0.61581 c -1.76607,-2.53932 4.13808,-1.22206 0,0 z m 2.4799,-2.28709 c 1.20272,-1.83588 2.23449,0.7867 0,0 z m -5.69723,-0.0266 c 0.2044,-0.33263 0.2044,0.33263 0,0 z m 10.26571,-1.33242 c -2.61362,-1.82881 2.15297,-0.41735 0,0 z m -6.14461,-0.14129 c 0.33355,-1.14627 1.12102,0.64297 0,0 z m 7.78059,-1.01279 c -0.95525,-2.70409 2.48457,0.79484 0,0 z m 2.10368,-1.31997 c -1.96222,-1.22785 -3.32391,-2.66085 0.0301,-1.20477 1.18505,0.20146 1.35527,1.49698 -0.0301,1.20477 z m -10.14335,-0.41615 c -0.51623,-1.66615 1.34488,0.59123 0,0 z m 2.21827,-0.37867 c -0.75464,-1.23859 1.41437,0.5372 0,0 z m 8.09449,-1.92243 c -2.03078,-2.23486 2.48769,0.2696 0,0 z m -1.84266,-0.99711 c -0.72754,-2.25957 1.82572,0.42254 0,0 z m 4.01728,-0.95991 c -0.10672,-0.93415 0.64586,0.62559 0,0 z m -32.006347,-2.8992 c -0.430124,-1.43279 1.229469,0.48221 0,0 z m 29.716097,-0.17163 c -0.0442,-1.15812 1.24886,0.57621 0,0 z m 4.96175,0.0581 c -0.74078,-2.47758 1.60342,-1.10146 0,0 z m 0.80803,-4.6101 c -0.0104,-1.11741 0.9739,0.68091 0,0 z m -6.7056,-2.35373 c 0.40864,-0.66501 0.40868,0.665 0,0 z m -30.6705,-0.34437 c -0.63061,-2.06576 2.104461,0.34842 0,0 z m 39.90001,-1.55962 c 0.26433,-1.74405 1.78821,0.78887 0,0 z m -41.976105,-0.0578 c -0.642289,-1.59471 1.268625,-0.37943 0,0 z m -1.220143,-2.31387 c -0.112023,-1.87987 1.79026,0.67373 0,0 z m 1.878072,-0.21432 c 0.565386,-1.27569 0.342673,0.98934 0,0 z m 38.156446,-0.30779 c -0.0255,-1.78951 1.91251,0.31693 0,0 z M 81.510027,155.8856 c -0.269458,-1.98174 2.598079,-5.51408 1.917678,-1.46318 0.06097,0.78392 -1.140467,2.40682 -1.917678,1.46318 z m 44.050703,-0.48979 c 0.16012,-1.22445 1.12262,0.61476 0,0 z m -3.64146,-0.84874 c 0.29925,-1.39305 0.96433,0.50506 0,0 z m -4.67162,-7.03669 c 0.51655,-0.85573 0.27035,0.5682 0,0 z m -33.249326,-0.4567 c 0.246958,-3.5947 3.9346,-0.46545 0,0 z m 34.870536,-1.06423 c 0.24871,-1.98553 1.44361,0.53693 0,0 z m -0.81821,-6.70706 c -0.20805,-1.38674 1.29927,0.75288 0,0 z m -35.59852,-2.82544 c -1.087949,-3.12116 2.462815,-0.96338 0,0 z m 2.540286,-1.71205 c -1.019646,-2.53721 4.145858,-6.6045 1.828022,-1.65627 -0.371667,0.55352 -0.869609,2.1027 -1.828022,1.65627 z m 26.446904,-1.25177 c -0.69092,-1.47785 1.04949,0.39634 0,0 z m 4.86254,-3.78833 c 0.31594,-1.84305 2.03003,-0.82698 0,0 z m -6.04773,-0.16399 c 0.10606,-0.82357 0.58137,0.43708 0,0 z m 8.7665,-0.97189 c 0.10654,-2.02119 2.2409,0.399 0,0 z m -11.55353,-2.31853 c -0.31282,-1.52359 -3.93565,0.16447 -1.17178,-1.6432 0.74659,-0.4049 2.853,1.84417 1.17178,1.6432 z m -4.48224,-1.51306 c -0.12057,-2.8467 2.00179,-0.27749 0,0 z m -4.716997,-0.78845 c -3.880261,-1.09191 4.931447,-1.13722 0,0 z m -5.673325,-2.59074 c -0.0276,-2.05229 0.657925,1.45635 0,0 z m -12.267362,66.91057 c 3.000968,-1.68872 -4.162419,-6.89143 -0.236691,-6.20681 1.783276,4.24956 3.571519,0.87952 2.196742,-1.90464 -1.228803,-2.01174 0.549845,-7.34981 1.159729,-2.92065 1.949632,1.67744 -1.024905,-4.3991 -0.852012,-5.76559 -1.340173,-4.03295 -0.387463,-8.67274 -2.902729,-12.27586 -1.103859,-3.04981 -1.707913,-7.04138 -1.248671,-10.42403 -0.03729,-2.06337 -1.676641,-2.2209 -0.222559,-3.81887 -0.995863,-2.15696 -0.769463,-4.94539 0.09047,-6.27781 -0.863566,-1.33514 3.289407,-0.83019 0.477315,-2.63771 -0.866734,-1.51933 2.012171,-5.89204 -1.622973,-3.04644 1.452857,-2.48439 0.436822,-3.36924 2.123232,-5.98065 0.809369,-2.14012 -3.243842,-7.57569 0.228038,-3.76406 2.976385,-3.62761 -5.3261,-4.84096 -4.425225,-0.39893 -4.078002,0.1435 -3.228828,6.45555 -4.553702,8.45688 -0.71774,1.67592 -2.581595,3.8759 -1.858462,4.50957 -2.953882,2.29269 -2.07268,7.20939 -3.26278,10.49418 -1.273641,3.72909 -1.767523,7.60379 -0.823938,11.16851 -1.278322,3.00419 1.794393,6.82307 1.473507,10.27582 2.01449,3.55895 2.761425,7.48937 4.829267,11.00963 1.843825,4.11969 4.40883,7.41569 7.677811,9.57397 0.57961,0.0399 1.197801,0.20779 1.753627,-0.0665 z m -1.431046,-8.46243 c -0.212821,-1.8561 1.758653,0.51836 0,0 z m -4.985195,-0.97854 c -2.52942,-2.53764 1.667809,-1.28894 0,-3e-5 z m 5.760332,-5.82162 c -0.206393,-0.87359 0.709427,0.24993 0,0 z m -7.941986,-0.37469 c 0.235237,-2.69991 2.323077,0.70935 0,0 z m -5.116434,-17.72377 c -0.558574,-1.29206 1.106843,-0.0435 0,0 z m 2.061724,-6.75349 c 0.08024,-1.02868 0.847589,0.4426 0,0 z m 6.479292,-5.70559 c 0.35552,-0.71503 0.485456,0.43614 0,0 z m 1.1176,-13.61164 c -0.177369,-2.33117 2.447995,0.33618 0,0 z m 1.214511,-2.1398 c -0.725438,-2.93956 1.299131,1.47483 0,0 z m -3.207,0.23763 c 0.399886,-2.67638 4.695271,-1.8925 0,0 z m 27.218006,61.10641 c -0.0698,-1.49441 -1.45916,0.85924 0,0 z m -10.679783,-0.40223 c -0.359224,-1.74716 -0.632781,1.30627 0,0 z M 113.3441,186.2549 c 0.47104,-1.40441 -1.44434,0.28062 0,0 z m -11.80267,-0.29904 c -0.0666,-1.25104 -0.62745,0.83857 0,0 z m -11.228011,-0.38319 c -0.196198,-2.32162 -2.378303,0.75922 0,0 z m 25.691871,-0.24537 c -0.098,-1.0895 -0.85555,0.65066 0,0 z m -6.95194,-0.69925 c 0.0433,-1.45061 -1.39277,0.72074 0,0 z m -4.19081,-0.0946 c 0.0824,-0.7571 -0.6671,0.35359 0,0 z m 6.22628,-1.71061 c 0.34758,-1.6048 -1.5953,0.28097 0,0 z m -26.15588,-0.17547 c 0.350046,-2.31723 -1.683206,0.38992 0,0 z m 33.04532,-0.47042 c 0.58922,-1.41774 -1.28498,0.19765 0,0 z m -30.379474,-0.5321 c 1.566771,-3.78365 -3.429433,-1.00794 0,0 z m 30.435314,-1.54561 c 2.99662,-3.37131 -3.05763,-0.41686 0,0 z m -34.503019,-0.0656 c 0.85485,-3.17861 -2.600316,0.97721 0,0 z m 48.163159,-14.72318 c 3.73968,-3.76396 -4.74113,-1.28135 0,0 z m 0.35137,-8.38444 c 0.38626,-1.59261 -1.40167,0.37005 0,0 z m -0.0441,-4.58317 c 0.34725,-1.55805 -1.6938,0.32583 0,0 z m -0.33743,-4.37312 c 0.65161,-2.3577 -2.0194,0.0496 0,0 z m -1.33143,-8.94719 c 1.1348,-4.45506 -3.34804,0.15797 0,0 z m -1.5594,-3.67925 c -0.46315,-3.24563 -1.4934,1.19356 0,0 z m -1.20501,-2.30525 c 1.27498,-2.50493 -3.74241,-4.34196 -0.61832,-1.55109 0.25547,0.38092 -0.4947,2.1736 0.61832,1.55109 z M 82.104088,131.9019 c 2.215781,-1.65897 -0.873107,-4.76716 -0.107078,-1.1039 -0.4964,0.40728 -1.176421,1.41481 0.107078,1.1039 z m 5.323087,-7.91227 c 0.308112,-1.29345 -1.107096,0.41484 0,0 z m 31.937205,-0.86385 c 0.54408,-1.92124 -1.84239,0.50549 0,0 z m -33.029648,-0.33892 c 3.98399,-5.34076 -3.435611,0.18104 0,0 z m 26.792128,0.14035 c -0.37823,-0.67082 -0.37949,0.67053 0,0 z m -4.54603,-1.24126 c -1.05778,-2.45699 -1.75579,0.56164 0,0 z m 9.28784,-1.13016 c 0.095,-1.20922 -1.10818,0.38296 0,0 z m -12.84441,-0.18551 c 0.83891,-3.00018 -3.13501,0.43393 0,0 z m -2.73787,-0.40293 c 3.17061,-4.68397 -3.145205,0.37043 0,0 z m 7.49952,-0.0738 c 0.48152,-1.5203 -1.72459,0.45414 0,0 z m 5.44967,-0.37683 c 0.089,-1.34846 -0.95425,1.11531 0,0 z m -4.0621,-0.53251 c 0.67752,-1.91083 -1.44115,0.18098 0,0 z m -10.40055,-0.0674 c -0.32306,-2.26197 -1.609142,0.18 0,0 z m -13.967539,-0.44374 c -0.142947,-1.55493 -0.94324,0.82999 0,0 z m 20.635139,0.11359 c 2.5301,-2.31863 -2.1047,-0.24845 0,0 z m -9.976593,-0.52048 c 1.159473,-2.62598 -2.563257,0.62606 0,0 z m -2.011238,-0.78132 c 0.549747,-1.95392 -1.756975,0.73097 0,0 z m 11.188391,-0.66825 c 0.74777,-2.67901 -1.93933,0.77902 0,0 z m -3.38135,-0.17647 c 2.05616,-2.62524 -2.35293,-0.30602 0,0 z m -2.83892,0.004 c 0.43245,-1.59892 -1.571075,0.31246 0,0 z m -18.702998,-0.20929 c 6.43e-4,-0.88929 -0.675395,0.37776 0,0 z m 28.201828,-0.39399 c 2.17305,-4.14416 -3.38933,0.99575 0,0 z m -2.77285,-1.38677 c 0.2912,-1.94224 -1.50375,0.8243 0,0 z m -12.651175,-2.49273 c 0.615807,-2.0978 -1.615677,0.90965 0,0 z m 10.445945,0.10035 c -0.31297,-0.54378 -0.2552,0.63265 0,0 z" />
          <path
             id="path50"
             style="opacity:0.32;fill:#000000;stroke-width:0.0846667"
             d="m 96.209529,201.75127 c -6.573471,-0.55605 -12.686803,-3.53159 -17.636128,-7.80649 -4.579131,-3.59032 -8.954237,-7.83092 -11.29654,-13.23614 -2.946228,-3.78565 -4.318955,-8.29265 -5.763348,-12.76848 -1.472633,-5.97541 -2.336305,-12.15283 -2.506515,-18.29788 0.480872,-9.08484 2.230719,-18.39797 6.715422,-26.40235 5.201888,-8.24854 12.393261,-15.78358 22.000412,-18.63752 7.194267,-2.31557 15.278218,-2.80198 22.256818,0.50953 6.07539,2.14289 10.41269,7.43577 14.30265,12.33891 5.78526,7.42426 10.59856,15.87869 11.86928,25.34431 0.86557,4.91148 0.73624,9.8896 0.96804,14.8329 -1.45715,12.30168 -6.13687,24.43163 -14.45499,33.74236 -4.90166,6.13284 -12.28498,10.15504 -20.17692,10.50477 -2.0848,0.24887 -4.205117,0.20631 -6.278181,-0.12392 z m 1.2997,-7.47391 c 4.867371,-3.50455 -3.485529,-1.38775 0,0 z m -2.815331,-2.37002 c 2.171485,-2.89507 -2.126623,-2.94733 -1.004632,-0.33907 l 0.40212,0.212 z m 9.844862,-0.40311 c 0.56462,-1.16675 -1.44973,0.20779 0,0 z m -7.008642,-0.21369 c 1.194648,-4.26141 -3.527177,0.54873 0,0 z m -8.793301,-0.93237 c 0.447196,-1.83317 -1.992056,0.44432 0,0 z m 11.817613,-0.16397 c 0.39645,-3.24126 -2.703355,0.52442 0,0 z m 13.42648,-1.09937 c 0.17615,-2.30348 -2.31061,0.57434 0,0 z m -18.112336,-0.12762 c 3.277144,0.95296 5.243476,-3.34932 3.986447,-4.75058 2.280739,2.44221 4.598879,-2.6174 6.876599,-0.95063 3.00233,1.67022 1.09204,-3.08871 4.57274,-2.00144 0.75077,-1.55334 0.38935,-2.59317 2.11177,-0.84357 1.67408,-0.38089 3.12752,-0.7385 4.29735,-2.97406 2.63817,0.77614 0.40044,-2.21881 2.52813,-2.0257 1.76864,2.98366 1.84849,-0.93318 0.65612,-2.08231 4.38901,1.11334 -1.9892,-3.18291 2.34383,-3.19248 1.37046,-2.34768 2.4483,-2.30748 1.47918,-4.77877 -0.10497,-3.19419 4.40297,-5.72105 3.39757,-8.2004 -1.45339,0.0573 2.78278,-1.13618 0.646,-2.99814 2.08681,-1.46556 -1.78124,-4.323 0.85217,-5.29176 -3.24473,-1.76793 -2.37968,-5.3084 -3.63339,-8.4921 -1.17769,-1.45463 -3.39921,-2.50178 -4.38584,-2.00308 1.70931,-1.18566 0.33269,-3.97829 1.86298,-2.92109 -0.21516,-2.12632 -3.4959,-2.50931 -1.99313,-5.27797 -1.33026,-0.87585 0.019,-4.46672 -3.09675,-3.62524 1.65218,-2.29621 -3.27602,-4.13743 -1.62744,-0.91184 -3.26026,-0.63922 1.19665,-6.28566 -2.05849,-3.33892 -0.54144,1.87852 -0.24608,3.98034 -2.16722,1.79214 -3.78785,-0.63133 -1.4126,5.11864 -0.12529,1.32186 1.88001,2.91596 -5.32116,2.44291 -2.36101,-0.6758 1.60121,-2.84676 -0.0445,-2.78058 -1.2765,-1.14081 -3.05119,-0.40173 -5.82326,-5.08553 -8.48272,-1.30108 -1.829895,-1.81263 -6.908991,0.88748 -5.762142,-3.47846 -3.102986,-2.14475 -3.644295,4.53933 -5.029105,2.09765 -1.662542,2.08331 -1.448442,8.23222 -3.363657,7.86962 -1.653121,-1.00952 1.349668,-5.69427 -1.138709,-3.69745 -1.017785,3.46939 -0.443454,7.29351 -3.967287,9.45297 0.08728,2.02964 1.802498,7.29186 -2.250783,5.65807 -1.464441,3.51424 2.956655,1.12151 3.113423,1.54394 -1.840807,1.75982 -2.484963,3.7557 0.912758,2.59381 2.084403,1.14909 -2.626,1.54653 -1.343622,3.88957 0.1262,3.67237 -4.055849,9.05166 0.58218,11.19019 0.167435,1.87729 4.506157,1.93568 1.655563,3.88516 -1.417974,-1.74142 -1.509535,4.22779 0.705198,3.80539 -2.486742,3.59945 1.922869,8.43454 2.047091,11.44069 2.755034,0.6106 -1.944498,2.5889 1.345869,3.14091 0.07949,3.594 4.607023,0.0974 4.771759,3.5885 0.162495,1.63738 -0.240248,5.42446 1.031831,1.65102 0.678444,-0.65985 0.947026,3.77226 2.286527,2.03219 z m 0.04556,-1.54093 c -0.731257,-2.68411 1.532637,-0.87009 0,0 z m 5.247296,-4.35822 c 1.10742,-0.88836 0.12759,0.67377 0,0 z m -11.425514,-0.16885 c 0.581925,-3.42909 -2.372968,-7.5721 -1.50898,-10.07524 1.906943,1.68128 3.521396,8.22999 1.50898,10.07524 z m 16.852904,-0.73294 c -1.56281,-1.89367 3.25836,-1.20659 0.13659,0.038 z m -18.734957,-1.41172 c 0.19686,-0.74674 0.196896,0.74671 0,0 z m 21.208997,-0.90332 c 0.84968,-1.72717 2.08386,1.12035 0,0 z m -1.56633,-1.45699 c 0.30201,-0.82984 0.65928,0.48925 0,0 z m 5.54784,-0.17549 c 0.0397,-1.93371 1.57395,1.35528 0,0 z m 2.31668,-0.72384 c -1.47374,-1.88652 2.14387,-0.0563 0,0 z m 1.8903,-1.48545 c -2.44075,-1.72695 -2.1457,-1.94816 0.38373,-0.94272 0.86527,0.35304 0.40303,1.32848 -0.38373,0.94272 z m -10.03803,-0.40508 c -0.452,-1.06664 0.89441,0.51048 0,0 z m 2.13409,-0.43054 c -0.4573,-1.00708 1.11585,0.81565 0,0 z m 8.14392,-1.87142 c -1.92226,-1.85964 2.08904,0.30646 0,0 z m -1.91472,-1.13365 c 0.0457,-1.56554 1.06807,0.82561 0,0 z m -27.938972,-3.78293 c -0.04419,-0.91742 0.760128,0.64396 0,0 z m 29.795602,-0.11938 0.31594,-0.18013 z m 4.85299,-0.26065 c -0.12834,-3.20015 0.83295,1.04373 0,0 z M 84.126666,165.2863 c -1.978887,-3.06749 2.080719,0.31281 0,0 z m 39.072054,-1.55539 c 0.0798,-0.67597 0.62707,0.63598 0,0 z m -6.72752,-2.28036 c 0.2044,-0.33263 0.2044,0.33263 0,0 z m -30.791005,-0.55803 c 0.09157,-1.99181 1.892185,0.91618 0,0 z m 40.056555,-1.39811 c 0.21812,-1.3659 1.26043,0.62538 0,0 z m -42.018,-0.0962 c -0.534579,-1.37941 0.969831,-0.29854 0,0 z m -1.231858,-2.31415 c 0.09332,-1.3705 1.265204,0.57654 0,0 z m 1.895638,-0.12087 c 0.169339,-1.36824 0.313798,0.75223 0,0 z m 38.15645,-0.39511 c -0.0528,-1.08837 1.32121,0.12493 0,0 z m -40.958814,-0.71451 c -0.288827,-2.5197 2.755596,-4.68819 1.67687,-0.89281 -0.213897,0.51621 -1.073989,1.56812 -1.67687,0.89281 z m 44.132774,-0.54578 c 0.19042,-0.66414 0.33714,0.4571 0,0 z m 1.57442,-0.43496 c -0.40163,-0.5429 1.21406,0.37252 0,0 z m -5.22816,-0.48291 c 0.24613,-0.65075 0.32671,0.39755 0,0 z m -37.959737,-7.40274 c 0.631337,-3.13948 3.115982,-0.21606 0,0 z m 34.869507,-1.03048 c 0.17612,-1.49982 1.00657,0.29049 0,0 z m -0.83633,-6.76197 c -0.15785,-1.12741 0.90436,0.84715 0,0 z m -35.640998,-2.86198 c -0.66757,-3.23905 2.159434,-0.58459 0,0 z m 2.584054,-1.67413 c -0.783333,-2.45997 3.836562,-6.20186 1.66363,-1.62627 -0.407272,0.58305 -0.815711,1.60976 -1.66363,1.62627 z m 26.410774,-1.30349 c -0.23712,-1.15113 0.44492,0.61046 0,0 z m 4.90006,-3.69267 c 0.35421,-1.00383 1.439,-1.02203 0,0 z m 2.71092,-1.18767 c 0.35047,-1.34311 1.50349,0.31376 0,0 z m -5.05893,-1.26344 c -0.38337,-2.0237 1.49153,1.35572 0,0 z m -6.48676,-1.04564 c -0.55568,-1.36555 -3.63777,-0.25718 -0.80763,-1.38177 0.47324,-0.0288 2.02111,1.48604 0.80763,1.38177 z m -4.51253,-1.58902 c -0.0586,-1.72829 1.32981,-0.16921 0,0 z m -4.704022,-0.71249 c -2.965711,-0.83285 3.124552,-0.93744 0.697024,-0.15 z m -5.657438,-2.5935 c -0.350071,-1.13872 0.586954,0.65657 0,0 z m 10.24368,67.57322 c 0.1471,-0.90017 -0.72545,0.40055 0,0 z m -22.503271,-0.50953 c 3.137861,-1.66698 -3.705815,-6.54906 -0.543185,-6.20798 0.413241,3.0486 4.884647,2.61734 2.43718,-0.26913 0.681039,-1.71771 2.331068,-3.43964 -0.236313,-2.28159 -0.624129,-1.58987 0.701305,-6.64459 1.077957,-2.38656 2.630373,2.53261 0.140141,-3.61878 -0.359451,-4.8934 -1.596119,-4.08628 -0.290055,-9.33893 -2.810873,-12.4347 -1.792129,-3.61914 -1.401942,-7.84867 -1.387002,-11.62164 -2.435418,-1.93979 1.587471,-3.58832 -1.097741,-5.574 0.825589,-1.87568 0.308906,-5.36254 2.088468,-4.95089 -0.977883,-1.75733 -0.801653,-4.95407 -0.543437,-5.70535 -3.504034,1.6097 0.681652,-0.77682 -1.302967,-2.42197 3.467739,-1.6296 0.666373,-6.29628 0.505618,-7.755 3.629945,4.28573 1.085159,-5.57643 -2.57994,-1.23065 -0.661917,2.72541 -4.583951,3.0191 -4.036893,6.91547 -0.726553,2.94805 -1.998703,5.01286 -3.126296,7.64243 0.775476,0.70058 -2.839138,2.50417 -1.993281,4.80772 -0.478789,4.73832 -2.382151,9.22541 -2.772289,14.00467 1.052205,4.15074 0.408543,8.42409 2.085648,13.00404 1.792355,4.37274 3.315535,8.92012 5.578252,13.08695 1.682926,2.63378 3.407338,6.05153 5.691973,7.28605 0.321223,1.49311 2.226511,1.25078 3.324572,0.98553 z m -1.450943,-8.63411 c -0.08459,-1.2713 1.230444,0.50573 0,0 z m -5.146362,-1.2117 c -2.234781,-3.0739 1.932896,0.68988 3e-6,0 z m 5.904989,-5.60803 c 0.204333,-0.3326 0.204333,0.3326 0,0 z m -7.852833,-0.22541 c -0.06087,-2.14456 2.052459,0.20373 0,0 z m -5.239883,-17.93559 c -0.125264,-1.19969 0.665858,0.5053 0,0 z m 2.170716,-6.64634 c 0.190041,-0.32798 0.111459,0.32113 0,0 z m 7.552267,-19.32093 c -0.139291,-1.91688 1.968237,0.36157 0,0 z m 1.313,-1.84574 c -0.838588,-1.21331 0.861261,-0.81994 0,0 z m -3.321377,-0.0875 c 1.215002,-2.64218 3.612508,-1.14497 0,0 z m 27.086467,61.37475 c 1.13452,-2.03028 -2.518392,0.39089 0,0 z m -10.633957,-0.1748 c 0.694381,-1.72102 -1.242133,-0.2588 0,0 z m 22.699587,-1.81245 c 0.0354,-1.78525 -1.70746,0.83913 0,0 z m -11.86221,-0.29453 c -0.3723,-1.31638 -0.76548,1.05769 0,0 z m -11.382194,-0.16824 c 0.472786,-2.34391 -2.468128,0.30697 0,0 z m 25.755154,-0.28603 c 0.29395,-2.02691 -1.47147,0.88778 0,0 z m -6.92234,-0.65609 c 0.62638,-2.05758 -2.07087,0.31212 0,0 z m -4.12584,-0.20182 c 0.004,-1.26483 -1.08042,0.56395 0,0 z m -18.124557,-0.15725 c -0.230384,-0.98167 -0.530657,0.78955 0,0 z m 24.376297,-1.66741 c -0.10183,-2.15698 -1.84888,0.99472 0,0 z m -26.224462,-0.044 c 0.537675,-2.78767 -2.088612,0.37142 0,0 z m 33.086862,-0.55318 c 0.4008,-1.72859 -1.36676,0.50825 0,0 z m -0.0102,-2.03008 c 2.76002,-3.22114 -2.88904,-0.40071 0,0 z m 13.82604,-14.84064 c 3.12415,-2.99519 -4.2803,-1.88129 -0.59861,0.20288 0.19954,-0.0676 0.39907,-0.13525 0.59861,-0.20288 z m 0.19377,-8.30769 c 0.65265,-1.84352 -1.77209,0.25416 0,0 z m -0.0218,-4.57908 c 0.51516,-2.03423 -2.14482,0.39677 0,0 z m -0.35265,-4.36727 c 0.79225,-2.52367 -2.0976,0.0303 0,0 z m -1.51076,-8.72177 c 2.06188,-4.12333 -4.14482,-1.03558 0,0 z m -1.38537,-3.38244 c 0.95843,-3.28608 -3.25527,-1.34019 0,0 z m -1.18534,-2.794 c 1.50152,-2.15117 -3.41332,-4.9781 -1.27152,-2.08954 0.94143,0.39813 -0.12983,2.41798 1.27152,2.08954 z m -45.509174,-1.12038 c 2.523598,-1.10131 -0.884961,-5.49749 -0.02841,-1.74699 -0.319619,0.58778 -1.758492,1.92012 0.02841,1.74699 z m 0.552833,-7.65348 c -0.344534,-0.6905 -0.309755,0.77733 0,0 z m 4.824344,-0.28547 c 0.562872,-1.59481 -1.495962,0.24682 0,0 z m -1.464519,-0.80986 c 3.504587,-2.03756 -1.74111,-4.77003 0,0 z m 33.381946,-0.067 c 0.9247,-2.63712 -2.62037,0.54375 0,0 z m -6.21064,-0.14841 c 0.007,-1.46692 -1.17057,0.75592 0,0 z m -4.54472,-1.32846 c -1.01032,-2.79914 -2.01209,0.85891 0,0 z m 9.20182,-1.06438 c 0.44902,-1.52004 -1.3358,0.24927 0,0 z m -12.78467,-0.254 c 1.11846,-3.19812 -3.53547,0.58829 0,0 z m -2.69924,-0.42965 c 3.46695,-5.08663 -3.762939,0.49489 0,0 z m 7.47299,-0.0333 c 0.45957,-1.9029 -1.9592,0.60356 0,0 z m 5.43077,-0.28837 c 0.37055,-1.35626 -1.30029,0.48818 0,0 z m -4.00894,-0.68364 c 0.47999,-2.90173 -1.95731,0.86149 0,0 z m -10.39585,-0.0638 c -0.48736,-2.38636 -1.63697,0.51611 0,0 z m -14.045051,-0.33168 c 0.281069,-1.93137 -1.499355,0.82459 0,0 z m 20.641711,0.10251 c 2.35047,-2.117 -2.18329,-0.58071 -2e-5,2e-5 z M 97.489391,118.161 c 1.491472,-3.24186 -2.934522,0.59915 0,0 z m -2.011138,-0.75959 c 1.190497,-2.63599 -2.965459,0.84887 0,0 z m 11.225107,-0.7033 c 0.9183,-2.94176 -2.35691,0.69807 0,0 z m -3.34037,-0.26913 c 1.73754,-2.443 -1.45974,-1.42263 -0.78693,0.16289 z m -2.8793,0.0927 c 0.59418,-2.05296 -2.113886,0.48277 0,0 z M 81.825449,116.1888 c -0.350258,-1.23019 -0.863662,0.92617 0,0 z m 27.973271,-0.0138 c 2.75328,-3.62905 -3.53401,-0.69859 0,0 z m -2.70291,-1.524 c 0.92292,-2.52595 -2.02755,0.24827 0,0 z m -12.788434,-2.32833 c 1.997513,-2.08025 -2.099226,-0.75673 0,0 z m 10.716934,-0.30372 c -0.63272,-0.81669 -0.27776,1.02387 0,0 z" />
          <path
             id="path48"
             style="opacity:0.1;fill:#000000;stroke-width:0.0846667"
             d="m 95.812533,200.94313 c -5.518976,-0.58929 -10.861972,-2.63877 -15.113003,-6.28909 -7.084389,-4.83324 -12.636403,-11.76972 -16.0256,-19.61757 -1.398889,-4.832 -3.696618,-9.4585 -3.803716,-14.5882 -0.474714,-3.06655 -1.384693,-6.07181 -1.125178,-9.20353 -0.09396,-2.52822 0.0073,-5.01967 0.60751,-7.47857 0.24187,-4.18261 1.396667,-8.29009 2.498558,-12.31909 1.526147,-4.34161 3.411669,-8.56142 6.417296,-12.10652 3.230615,-4.38354 7.085261,-8.30191 11.843694,-11.03016 4.535448,-2.78023 9.881221,-3.95449 15.061422,-4.77115 3.988704,-0.0806 8.030784,-0.0885 11.762164,1.55238 6.90654,1.82736 11.71769,7.5984 15.97758,12.95652 3.29856,4.64145 6.66308,9.2684 8.79285,14.59913 2.07617,5.43797 3.15753,11.27738 3.44348,17.07705 0.28291,4.24891 0.45502,8.47567 -0.41703,12.68949 -1.12832,4.72179 -2.1915,9.53282 -4.42178,13.88962 -2.77203,7.24056 -7.68926,13.5325 -13.27325,18.83689 -3.92673,3.1159 -8.61992,5.42388 -13.68759,5.68771 -2.47341,0.71484 -5.104161,0.36156 -7.635156,0.34463 -0.300671,-0.0764 -0.602071,-0.15376 -0.902251,-0.22954 z m -1.20222,-5.97837 c -0.719142,-2.08003 -0.447222,1.61534 0,0 z m 2.968803,-0.50658 c 3.443054,-1.55183 -0.05013,-4.25076 -1.173446,-0.98635 -0.174741,0.51373 0.654791,1.76546 1.173446,0.98635 z m 4.752744,-1.8503 c -0.2164,-0.30386 -0.2164,0.30386 0,0 z m 10.14307,-0.1016 c 0.37118,-1.29462 -1.05491,0.0672 0,0 z m -17.698678,-0.25823 c -0.502419,-2.32811 2.581922,-4.836 1.419725,-1.41208 2.200227,3.41951 1.263935,-4.54456 3.21326,-0.74794 1.611923,0.87184 3.253163,1.87291 1.305493,-0.53267 -1.126136,-0.51801 -2.661787,-1.21957 -0.898927,-2.64037 1.084257,1.31428 1.566287,1.65672 2.812397,0.10494 1.84195,-0.0988 -2.828117,-2.06972 0.19683,-2.20514 1.97073,2.4791 3.60075,-3.63981 5.1047,0.004 1.17957,0.24204 0.90076,3.4379 1.24661,0.41038 -0.0847,-2.23448 2.62857,-1.80633 2.47897,-3.83419 0.88112,2.2399 4.97501,-0.63809 1.67766,0.25837 -1.93855,-0.46121 1.36936,-2.46695 1.95932,-1.2028 1.20466,-0.17761 2.29003,-4.54775 3.46576,-2.33374 -3.09281,0.34173 -1.55996,3.67589 0.41752,1.4139 1.83527,1.53156 -0.69683,-6.82179 1.01197,-3.35876 2.3202,1.78845 1.90328,-2.00111 0.80231,-2.68559 3.34729,1.12518 1.72472,-0.83062 0.47659,-2.20864 0.91714,-1.63139 2.34049,2.16001 2.51675,-1.14176 -0.18232,-2.68592 2.55213,-1.66893 1.00777,-4.39861 -0.81882,-2.24747 2.88454,0.72096 1.35441,-2.42465 -1.44636,-1.90765 3.52576,-4.22052 2.86475,-6.56214 0.34881,-2.70872 0.71347,-5.30458 0.48269,-8.43164 -2.0069,-1.87819 -3.22903,-4.03765 -2.86791,-6.80546 0.70134,-2.03286 -3.19193,-0.70041 -1.53038,-2.98089 -4.06097,0.22233 0.39429,-4.57562 -3.37472,-5.37621 -1.30947,-1.84111 1.84392,-3.54467 -1.07844,-3.50129 -0.0818,-1.94601 -0.97133,-4.48778 1.18271,-4.99293 -1.49369,-2.23831 -2.8635,4.81329 -3.24812,0.58926 -0.70023,-1.88939 -2.25941,-1.99087 -3.15503,-1.11498 -0.74695,-0.95038 2.31207,-3.76363 -0.36685,-2.62931 -0.87518,2.97675 -4.30282,3.55244 -4.26708,-0.15009 -2.11648,1.83995 -3.31278,-2.22649 -5.22297,-0.53119 -1.69799,-1.36537 4.85541,-2.34664 1.72911,-3.6754 -1.70159,2.6988 -2.06609,0.35159 -0.39635,-1.0232 -0.0357,-1.30265 -0.1609,-4.00304 -0.82261,-1.18644 -0.2746,1.55926 -2.95243,6.53656 -3.31064,4.51805 0.0965,-1.49578 1.16411,-3.572 0.41148,-4.64078 -1.64821,1.41384 -0.69424,6.13627 -3.462609,3.09965 0.117389,0.97179 2.481349,4.77062 -0.04923,3.5467 -0.960817,-2.90086 -0.474188,-1.21298 -1.375676,-0.46873 -2.035471,0.84726 -5.340001,-0.44208 -3.1031,-3.30948 1.024039,-3.12733 -1.892851,1.31675 -2.979776,-0.73581 -3.993992,0.30247 2.915789,1.07666 -0.149922,1.8703 -3.892911,-1.01132 -2.395025,5.07498 -5.500574,4.65646 -0.94032,-0.009 2.440843,-5.18477 -0.634566,-2.58127 -0.593521,2.4979 -1.865357,5.30756 -1.903031,8.02766 -0.822457,2.97827 -3.497891,-3.49429 -1.188735,-4.73908 -1.783014,-1.10393 -2.648497,3.61375 -2.074334,4.59606 0.02328,0.24057 1.782103,2.93784 -0.371118,1.55985 -1.057017,-0.96145 -2.756516,-0.0748 -1.195211,-2.33777 1.02429,-2.95487 1.808744,-5.77591 1.25869,-8.61346 3.348766,0.0819 1.082248,-7.21166 0.05365,-2.69784 0.375047,2.19599 -4.091855,-0.48858 -3.962109,2.6946 -2.450414,2.69464 -5.631337,4.39408 -5.881085,8.75116 -1.548354,1.97701 -0.170693,4.62279 -2.897004,5.8249 -1.604036,3.86168 -3.023329,6.9624 -3.62755,10.92 -0.217415,4.31474 -1.11,7.98452 -0.650244,12.1661 0.35751,4.10139 1.938001,8.1744 2.406149,12.22596 2.942423,3.15161 1.823282,8.24719 5.339511,11.26967 2.258396,3.41775 4.039575,7.57656 7.952592,8.42427 1.176544,0.81739 5.842372,2.01241 4.431904,-0.51323 -3.28168,-1.86965 4.451609,0.52992 1.036526,-1.47181 -2.923012,-1.18774 -0.348774,-4.44795 1.281539,-2.33474 2.061932,1.28099 0.925604,-2.43093 -0.540158,-1.20529 -1.22857,-3.54807 -0.584647,-5.92666 -2.055263,-9.78138 -1.213607,-3.25911 -2.33725,-7.54365 -1.500798,-10.55592 2.108334,0.23932 -0.721739,3.68922 1.74703,4.08518 -1.515207,3.26247 1.559211,6.71755 2.210633,9.94815 -1.724307,3.48713 2.675309,5.44028 3.38484,8.52647 1.134367,1.2119 1.228454,4.35325 1.937839,0.8743 2.480179,-0.40663 -1.155246,5.13321 1.017548,4.24562 -1.127564,-1.64876 1.638776,-2.20163 1.741119,-3.43018 1.439878,1.6544 -2.975746,4.64764 0.703766,4.89314 z m -4.611253,-7.71697 c -1.418857,-2.0839 2.989485,0.92484 0,0 z m -10.053133,0.11117 c -1.662517,-2.61349 2.218394,0.72707 0,0 z m 2.987239,-1.30741 c -1.489277,-1.51954 1.462912,-4.0364 0.638004,-0.74883 0.433116,0.48476 -0.155823,1.1661 -0.638004,0.74883 z m 6.605638,-0.62565 c -1.404001,-1.79871 0.755338,-5.59252 0.63641,-1.55884 0.661595,0.49942 0.19793,2.01467 -0.63641,1.55884 z m 19.110437,0 c -0.38448,-1.50291 1.12873,0.33891 0,0 z m -29.342422,-0.0482 c -0.131196,-1.08381 0.879647,0.46641 0,0 z m 26.941942,-0.6832 c -0.38875,-1.75721 2.02011,0.26383 0,0 z m 5.34105,-1.93759 c -0.40858,-1.76575 1.87214,0.4997 0,0 z m -22.155444,-2.20905 c -0.355655,-1.77989 1.180665,0.23418 0,0 z M 115.3047,177.3208 c -0.60064,-1.57577 1.67084,0.34756 0,0 z m -26.410522,-1.41337 c -2.402307,-0.98955 -0.755523,-4.37613 0.653024,-1.56389 -0.132708,0.0517 0.06105,2.34848 -0.653024,1.56389 z m 28.340422,-0.003 c -1.33914,-1.67665 2.13711,0.23387 0,0 z m 0.0434,-2.79987 c -0.23802,-1.11716 1.24432,0.47814 0,0 z m -33.008318,-7.98502 c -0.386759,-1.25166 0.8635,0.27177 0,0 z m -0.793669,-2.69522 c -2.538189,0.9313 -3.443552,-5.36374 -0.961829,-2.05437 -0.05699,1.76961 3.888758,0.26961 1.32509,2.3507 z m -4.088776,-3.45392 c -0.560988,-2.06056 1.660275,0.32384 0,0 z m -0.237067,-2.19335 c -0.393031,-1.66431 1.394898,0.16529 0,0 z m 2.444545,-1.05282 c 0.255665,-1.14396 2.166809,-4.61878 1.605445,-0.87742 -0.268354,0.43835 -1.026051,1.53618 -1.605445,0.87742 z m -2.142265,-0.68395 c -1.834418,-2.46987 -0.15186,-5.8763 -0.192213,-7.72289 -0.252827,-1.15063 -1.131664,-5.28798 0.736231,-3.87235 -1.114748,2.76471 3.213971,4.20844 0.956387,6.73414 -1.331413,0.9943 0.420528,4.61589 -1.500405,4.8611 z m 4.848331,-8.3605 c -0.119002,-2.25072 2.994058,-0.22234 0,0 z m -3.418755,-0.70863 c -0.392173,-2.70184 5.272201,-1.10784 0.874935,-0.26789 l -0.689343,0.42272 z m -0.676345,-3.11895 c 0.750397,-3.1799 2.918315,0.38629 0,0 z m -2.123611,-0.2743 c -0.431472,-1.96305 1.322178,0.40529 0,0 z m 1.867086,-2.88296 c 0.07018,-2.45416 -1.714919,-5.30253 -0.147752,-7.713 -2.408231,-2.41008 4.535004,0.78003 1.047735,2.29528 -0.424847,1.1199 2.124549,7.06389 -0.899983,5.41772 z m 2.672348,-3.57656 c -0.38114,-2.18961 1.666415,0.10861 0,0 z m 2.455332,-1.778 c -0.428638,-1.68967 1.410634,-0.0882 0,0 z m 1.027142,-1.3867 c 0.216672,-4.54308 2.343479,-0.94865 0,0 z m -3.221969,-0.79539 c -1.017894,-3.20454 2.504289,0.008 0,0 z m 3.163377,-3.71531 c -1.829421,-2.60384 4.031559,-5.84948 1.11844,-1.88909 -0.697957,0.44813 0.339658,2.93803 -1.11844,1.88909 z m 28.224514,-1.367 c 0.2164,-0.30386 0.2164,0.30386 0,0 z m -8.93206,-1.35381 c 0.31012,-1.37824 0.94347,0.76426 0,0 z m 8.54812,-0.50475 c -1.43055,-1.1915 2.02604,-0.17371 0,0 z m 2.39065,-0.0576 c -0.21087,-0.64949 0.74296,0.15689 0,0 z m -9.71943,-2.36919 c 0.7494,-1.76083 2.10983,0.0591 0,0 z m -1.11437,-0.46135 c -1.81737,-1.46142 -1.54135,-2.43464 0.4678,-0.47815 0.2022,0.26597 -0.13683,0.79193 -0.4678,0.47815 z m 0.86753,69.81413 c 0.0313,-1.08839 -1.10585,0.43687 0,0 z m -1.48049,-0.66815 c 0.0488,-1.51598 -1.89969,0.51192 0,0 z m -18.347547,-0.66219 c 0.249794,-1.57111 -1.610154,0.39775 0,0 z m 2.196047,-0.1125 c 0.990307,-3.06706 -2.883248,-0.13133 0,0 z m 19.46171,-0.52803 c 1.10202,-2.06771 -1.85845,-0.0637 0,0 z m -5.18586,-1.06864 c 3.14889,-3.75025 -2.80383,0.80718 0,0 z m 11.12948,-0.19579 c -1.5121,-3.05418 -1.5327,2.34395 0,0 z m -3.51576,-0.32374 c 0.0561,-3.46479 -1.11208,0.94896 0,0 z m 7.23379,-0.69351 c -0.88269,-0.24433 0.23492,0.844 0,0 z m -30.540474,-0.20389 c -0.651426,-1.05717 -0.113809,1.4011 0,0 z m 17.670304,-1.02898 c 0.14178,-1.77199 -2.19698,1.02243 0,0 z m 8.56987,-0.28052 c 0.82309,-2.1507 -2.45603,0.30831 0,0 z m 2.67775,-0.97437 c 0.0716,-2.27591 -1.65977,1.20995 0,0 z m -4.41524,-0.20722 c 1.15505,-2.27945 -2.24029,0.32997 0,0 z m -5.19868,-0.37721 c 0.34972,-1.63198 -1.73203,0.36752 0,0 z m 12.05594,0.0354 c 0.25733,-1.85652 -1.05927,0.18483 0,0 z m -3.83109,-0.91734 c -0.16757,-2.3088 -1.26098,0.9542 0,0 z m 1.08757,-1.27597 c 0.1442,-1.6232 -1.23417,0.41632 0,0 z m 2.2192,-0.23394 c 1.20694,-3.3188 -2.5207,1.21726 0,0 z m 3.26811,-3.89043 c 0.2821,-1.4221 -1.08333,0.23428 0,0 z m 10.73198,-13.22229 c 2.79626,-3.52485 -4.19983,-2.65812 -1.29245,0.47155 0.46765,0.17862 1.05465,0.002 1.29245,-0.47155 z m 0.1874,-3.89669 c 0.12083,-3.804 -1.52153,0.50445 0,0 z m -0.0302,-4.22263 c 0.43051,-2.82667 -2.65789,-0.0329 -0.25864,0.86978 l 0.0575,-0.27076 z m -0.18043,-3.85168 c 0.62444,-1.86969 -0.89886,-9.8616 -0.99966,-4.4346 1.13004,0.92525 -1.27778,4.62346 0.99966,4.4346 z m -3.3636,-7.98649 c -0.0589,-1.08585 -0.59406,0.70148 0,0 z m 2.05729,-2.06052 c -0.7155,-1.89046 0.45158,-4.10895 -0.33766,-5.99333 -2.60278,-2.70102 -2.37271,-7.5238 -5.30297,-9.95707 0.11925,2.72242 1.35243,5.8483 3.01015,8.57423 -0.11859,2.9997 2.64273,4.40364 2.17164,7.38783 -0.0681,0.36384 0.48667,0.30128 0.45884,-0.0117 z m -2.80269,-1.45284 c -0.43239,-0.0502 -0.0376,0.43361 0,0 z M 113.20548,123.4715 c 0.62079,-2.20416 -1.52398,-0.0395 0,0 z m 6.45017,-0.31424 c 0.59179,-4.0019 -3.38853,1.11832 0,0 z m -6.40179,-2.29591 c -0.80054,-1.99751 -1.0853,1.22227 0,0 z m -30.443711,0.0701 c 0.369296,-3.08804 -2.640655,0.74746 0,0 z m 35.337181,-0.16568 c -0.43127,-2.80407 -1.82518,1.2839 0,0 z m -8.26936,-0.65377 c 2.03985,-1.00256 2.22812,-4.6804 0.2762,-1.12583 -1.44269,-0.21933 -2.0941,1.7162 -0.2762,1.12583 z m 5.41346,-0.32048 c 2.48719,-3.29776 -1.8749,-0.51147 0,0 z m -28.509672,-0.79968 c 0.897671,-2.45371 -1.89667,-0.10422 0,0 z m 10.433198,-0.44465 c 2.497299,-3.19948 -2.772997,-0.4851 0,0 z m 17.275354,-0.98872 c -0.79934,-2.35954 -3.5821,-2.10035 -0.63338,0.0156 l 0.31745,0.10376 0.31591,-0.11936 z m -13.92993,-0.9748 c 0.57548,-2.19699 -2.206694,0.45108 0,0 z m 9.22957,-0.26793 c 3.52227,-4.55068 -4.09204,-1.24312 0,0 z m -19.142087,-0.16191 c -0.102389,-0.30966 -0.208812,0.30172 0,0 z m -1.249831,-0.6898 c 1.220075,-2.46062 -2.335757,-4.06387 -1.029602,-0.54178 -0.01104,0.55537 0.572901,0.92057 1.029602,0.54178 z m 4.887373,-0.30354 c -0.544803,-1.84107 2.373349,-6.10724 -1.55538,-3.88957 -3.123002,2.17797 -1.024301,2.94286 0.731185,1.22107 1.784455,1.0212 -2.380027,3.41966 0.824195,2.6685 z m 2.952438,-0.0732 c 0.360517,-1.39006 -1.951888,0.41786 0,-4e-5 z m 3.098307,-0.84454 c 0.42364,-2.24809 -1.49315,0.0913 0,0 z m 8.63725,-1.49446 c 0.50626,-1.84998 -1.67925,0.6484 0,0 z m -6.48914,0.002 c 0.36318,-1.06728 -1.23673,0.23712 0,0 z m 2.54129,-0.0521 c 2.10819,-3.43306 -2.60392,0.16683 0,1e-5 z m -7.940681,-0.78201 c 0.278395,-1.67961 -1.30269,0.66279 0,0 z" />
          <path
             id="path46"
             style="opacity:0.6;fill:#010101;stroke-width:0.0846667"
             d="m 95.727863,200.7738 c -11.12038,-1.13675 -20.17489,-9.13828 -26.555902,-17.80527 -6.488247,-9.69927 -8.91265,-21.58801 -9.25462,-33.0949 0.399451,-12.18441 3.689382,-24.89843 12.214535,-34.00348 9.257838,-10.60433 25.451093,-15.64108 38.594444,-9.62378 7.86717,3.90532 13.07991,11.46098 17.71937,18.64684 6.02095,8.87275 7.80621,19.76716 7.72309,30.29894 -0.18171,9.7983 -3.44868,19.45582 -8.37045,27.87963 -4.76792,7.5771 -11.23009,15.24521 -20.41812,17.17522 -3.80302,0.91453 -7.782266,1.09136 -11.652347,0.5268 z m -0.980368,-5.64607 c 0.069,-3.34949 -1.739334,1.80022 0,0 z m 2.876166,-0.54034 c 3.419819,-0.19289 -1.998888,-6.90707 2.580999,-3.94423 3.40123,0.76937 -3.652636,-4.15685 1.35229,-2.79124 2.42898,-0.0908 -0.0677,-3.70599 3.40913,-2.88153 1.95135,-2.59382 4.35917,3.45926 5.03555,-0.77723 0.0601,-3.28208 5.73916,-1.00734 4.15007,-3.66392 2.9285,0.15002 7.75679,-0.29505 5.52531,-4.36109 3.49238,1.834 0.85508,-2.37916 3.34854,-3.00643 -2.45651,-2.72268 2.44104,-1.03363 1.69,-4.05346 1.30189,-4.37858 1.57006,-7.92756 4.70087,-11.95041 1.64956,-4.67621 -0.21242,-9.44737 -2.25123,-13.69641 -0.70222,-3.8333 -4.395,-6.44425 -4.35021,-10.39686 -1.97074,-2.46615 -1.64085,-7.09979 -1.73686,-8.64105 -1.98859,0.82878 -1.66472,2.9392 -2.43683,0.14066 -2.26723,-0.18348 -2.83736,-2.61441 -3.0641,-2.87527 -1.79437,2.18171 -3.88662,2.53774 -5.11934,-0.043 -1.77721,-0.31956 -6.46185,-1.67692 -2.38307,-3.0276 1.1304,-2.62574 -3.71426,0.60461 -1.10186,-1.88476 1.11569,-3.35038 -1.72181,-2.44827 -1.47045,0.21264 -0.88537,2.61299 -3.38853,2.61126 -1.89123,-0.28793 -0.52821,-3.82619 -1.33142,3.39626 -3.39229,1.44971 -0.414287,1.26997 1.50158,4.14583 -0.968912,2.21943 -2.989651,2.12157 -5.473974,-0.79946 -4.014981,-3.68843 -2.203059,0.29202 -4.339294,0.9027 -3.173898,1.64532 -2.695747,-0.69827 -4.925496,8.082 -4.93383,2.28006 -3.992088,-0.0468 -1.120952,9.33331 -4.527404,7.61235 0.205866,-2.26207 -0.335478,-5.69473 -1.853115,-1.78261 1.115467,2.05102 -0.747897,5.67642 -1.291973,2.48428 1.158946,-3.92051 1.171746,-8.28047 3.225904,-11.72446 -0.748501,-3.15589 -1.976464,-0.85407 -2.914888,0.0153 -5.191352,1.96976 -8.207117,7.45786 -9.653306,12.52058 -2.745496,6.11431 -6.4517,12.12207 -6.365222,19.0703 -0.493142,5.83001 -0.465856,11.90983 1.915938,17.37033 0.688052,5.33181 3.540084,10.10243 5.792053,14.87737 2.628244,4.27842 6.459338,9.78041 12.223758,8.82633 -0.451843,-2.58335 3.418621,-1.80325 0.363996,-3.72766 -0.874061,-3.02266 5.025451,-0.60088 2.067738,-2.98648 -1.208006,-4.92932 3.229719,1.83418 3.666561,3.63316 1.517627,1.28661 2.659429,-0.30096 1.944536,2.62731 -0.567746,4.00208 2.861097,-4.25694 1.951571,0.52811 -0.817712,3.88513 1.78375,0.5904 2.518347,0.13509 1.664688,1.06381 -1.086556,5.35484 1.431838,4.54372 z m -7.374898,-10.13661 c -0.320366,-2.08949 1.39842,1.45652 0,0 z m -10.117135,0.0503 c -1.848506,-2.22823 2.083342,0.80463 0,0 z m 2.803205,-1.46946 c -1.154614,-2.65863 2.195033,-0.54806 0,0 z m 6.773542,-0.51428 c -1.578338,-4.60384 2.500729,-0.89744 0,0 z m 19.199265,0.12812 c -0.69559,-0.66343 0.73873,-0.19174 0,0 z m -29.35111,-0.11288 c 0.18631,-0.38012 0.18631,0.38012 0,0 z m 26.89966,-0.64523 c -0.1084,-1.17242 1.26642,0.32989 0,0 z m 5.37891,-1.90807 c -0.38673,-1.32551 1.23403,0.47378 0,0 z m -27.113903,-0.135 c 0.460129,-5.51706 -3.718841,-10.37293 -2.744602,-15.92052 1.167651,5.1046 3.589508,10.43297 3.384831,15.55657 l -0.267498,0.22223 z m 31.754923,-0.43517 c 1.10044,-2.86235 2.77804,-0.4224 0,0 z m -26.75959,-1.9142 c 0.189682,-1.05737 0.189682,1.05737 0,0 z m 25.62578,-0.26811 0.20496,-0.25614 z m -26.407126,-1.44639 c -3.629147,-2.48447 2.118453,-3.1 0,0 z m 28.230276,-0.0381 c -0.20917,-1.30696 1.04337,0.76397 0,0 z m 0.1524,-2.77707 c 0.3527,-0.48275 0.3527,0.48275 0,0 z M 83.48779,162.25488 c -2.668282,0.56144 -2.374248,-4.30305 -0.16732,-0.95121 1.113805,0.14867 1.594871,0.93148 0.16732,0.95121 z m -4.079427,-3.39884 c -0.432957,-1.01826 1.049437,0.24276 0,0 z m -0.174698,-2.4213 c 0.487886,-1.20649 0.188665,0.98775 0,0 z m 2.443399,-0.7792 c 0.05108,-3.37112 3.593344,-1.99165 0,0 z m -2.184615,-0.74549 c -1.257007,-2.97843 -0.356945,-10.19719 0.279481,-10.73107 1.817428,3.35288 1.255311,7.39228 -0.279481,10.73107 z m 4.890081,-8.45107 c 0.373628,-1.7344 1.629836,0.4024 0,0 z m -3.414889,-0.55888 c 1.136049,-3.06168 3.373982,0.1929 0,0 z m -0.621679,-3.21152 c 0.41286,-2.16938 2.064688,0.28351 0,0 z m -2.172321,-0.17515 c -1.071693,-1.47354 1.101705,0.015 0,0 z m 1.865739,-2.88929 c 0.26945,-2.27632 -2.470581,-7.32231 0.956923,-7.69759 0.05471,2.44674 0.405629,6.0731 -0.386511,7.87812 z m 2.665872,-3.8911 c 0.484768,-1.20585 0.198918,0.98631 0,0 z m 2.439278,-1.75328 c 0.404061,-1.9367 0.406937,1.11948 0,0 z m 1.13479,-1.41306 c -0.470814,-2.4116 1.706757,-1.12932 0,0 z m -3.401951,-0.54262 c -1.00292,-2.40365 2.091539,-0.009 0,0 z m 3.163688,-3.76937 c -1.379789,-2.34943 3.234526,-4.17678 0.683172,-0.89067 0.138476,0.46938 0.09202,1.77768 -0.683172,0.89067 z m 19.479183,-2.50601 c -0.39776,-0.71118 0.90446,0.17758 0,0 z m 8.28348,-0.73704 c -0.32498,-1.01996 1.26905,1.01475 0,0 z m -7.15386,-2.34026 c 0.95851,-1.48339 1.01021,0.22596 0,0 z m -1.30378,-0.61202 c -2.34975,-0.94995 0.39751,-1.7042 0,0 z m -2.89893,70.6755 c 0.19815,-1.24037 -0.79076,0.50435 0,0 z m 10.21107,-0.2061 c 0.44701,-2.45502 -1.9041,0.54428 0,0 z m -6.26236,-0.25957 c 0.30889,-1.70561 -1.46862,0.71188 0,0 z m -1.62809,-0.59858 c 0.7997,-2.11103 -2.15039,0.47517 0,0 z m -18.183907,-0.75608 c 0.554255,-2.35158 -2.110812,0.83901 0,0 z m 2.230798,-0.12623 c 1.36719,-4.07593 -3.646472,0.41252 0,0 z m 19.418549,-0.50903 c 1.91746,-2.83107 -2.95059,0.15573 0,0 z m 5.86732,-0.88874 c 0.86571,-3.18089 -3.35446,0.67799 0,0 z m -11.0617,-0.20517 c 2.61643,-1.74855 -2.23405,-0.87785 0,0 z m 7.64071,-0.26085 c 1.70996,-3.00941 -3.13223,-1.50353 0,0 z m 7.28117,-0.76275 c -0.26728,-1.85961 -1.23031,1.22771 0,0 z m -30.583076,-0.21985 c 0.202602,-2.0976 -1.305815,1.04915 0,0 z m 17.350216,-1.01231 c 1.39148,-2.09452 -2.34742,0.51931 0,0 z m 8.66958,-0.32935 c 2.13569,-2.64799 -3.04894,-0.18433 0,0 z m 2.66943,-0.82922 c 1.97275,-2.81655 -2.69995,-0.31364 0,0 z m -4.34331,-0.35646 c 2.27099,-2.79507 -2.86034,-0.27235 0,0 z m 6.98914,-0.50717 c 0.883,-2.11843 -1.77797,0.1597 0,0 z m -3.92831,-0.75969 c 1.03341,-3.09938 -2.34293,0.1619 0,0 z m 1.01311,-1.27845 c 1.35256,-1.80195 -1.91081,-0.46619 0,0 z m 2.19377,-0.1039 c 2.54601,-2.5366 -2.87754,-0.68333 0,0 z m 3.47527,-4.1275 c 0.6866,-2.18371 -1.7748,0.26422 0,0 z m 10.15319,-12.73881 c 3.95874,-1.84757 -3.92055,-4.39862 -1.0559,-0.2258 0.22411,0.30819 0.72292,0.54524 1.0559,0.2258 z m 0.73646,-4.32487 c 1.78138,-3.27969 -3.20038,-1.28416 0,0 z m -0.15297,-3.74963 c 2.15374,-3.69731 -3.1341,-0.68237 0,0 z m -0.209,-4.25736 c 1.55614,-2.05111 -1.06039,-9.16676 -1.04123,-3.27361 -0.0646,1.14332 -0.0873,2.60062 1.04123,3.27361 z m -3.21006,-8.08238 c 0.31447,-1.0664 -0.96434,0.40083 0,0 z m 2.09292,-2.11925 c 0.67731,-5.22596 -2.02869,-10.50799 -4.68291,-14.74797 -2.87835,-0.2485 1.39185,5.15322 1.45985,7.05527 1.01905,2.58444 1.90464,5.24035 3.22306,7.6927 z m -2.77015,-1.36107 c -0.13698,-1.14486 -0.79289,0.81467 0,0 z m -14.72823,-18.56509 c 0.88769,-2.90427 -2.3657,0.35701 0,0 z m 6.19219,-0.0573 c 2.38171,-4.59625 -4.13524,0.67266 0,0 z m -6.19813,-2.24958 c 0.21484,-3.05018 -2.62436,0.7486 0,0 z m -30.468038,-0.1065 c 1.028099,-3.31678 -2.886818,0.94016 0,0 z m 35.305498,0.0654 c 0.97588,-3.31991 -3.44365,0.53021 0,0 z m -8.273,-0.85594 c 2.35686,-0.56626 1.30878,-3.96045 -0.32122,-1.47505 -1.2333,0.18809 -1.208,2.38677 0.32122,1.47505 z m 5.34686,-0.31302 c 2.56609,-1.59471 -1.87836,-1.91265 0,0 z m -28.577779,-0.68823 c 2.275093,-2.41826 -2.787226,-1.33186 0,0 z m 10.535841,-0.57777 c 3.650858,-2.78316 -2.885059,-1.26468 0,0 z m 17.290478,-0.96866 c 0.16772,-2.83708 -4.15991,-1.38401 -0.48451,-0.24078 0.1615,0.0803 0.32301,0.16052 0.48451,0.24078 z m -13.9051,-0.98733 c 1.04153,-2.63813 -2.532233,0.52182 0,0 z m 9.07603,-0.12632 c 4.9294,-4.23179 -4.64522,-2.02307 0,0 z m -22.879676,-0.34703 c -0.320342,0.54541 -0.347592,-0.24616 0,0 z m 3.951468,0.0953 c 0.303212,-1.2241 -0.991956,0.43917 0,0 z m -1.409748,-0.71256 c 2.599474,-2.63023 -3.719768,-2.93593 -0.739126,-0.50612 z m 4.861634,5.1e-4 c 3.643518,-3.55883 -4.178811,-6.88532 -2.715786,-2.02336 2.762183,-1.07226 1.862097,-0.10264 1.545842,1.80465 l 0.515047,0.25522 z m 2.995919,-0.38236 c 0.806788,-2.16641 -2.141548,0.66134 0,0 z m 3.295503,-1.03527 c 0.42704,-3.34359 -2.128485,0.73305 0,0 z m 8.41601,-1.17094 c 1.86808,-2.688 -2.57708,-0.12227 0,0 z m -6.34879,-0.16995 c 0.52627,-1.99406 -1.73747,0.70581 0,0 z m 2.37536,0.0822 c 3.71708,-3.43202 -2.86064,-1.37144 0,0 z m -7.969403,-0.75626 c 2.069657,-2.57075 -1.9959,-0.28328 0,0 z" />
        </g>
      </g>
    </g>
  </g>
</svg>
