<?xml version="1.0" encoding="UTF-8" standalone="no"?>
<svg
   xmlns:dc="http://purl.org/dc/elements/1.1/"
   xmlns:cc="http://creativecommons.org/ns#"
   xmlns:rdf="http://www.w3.org/1999/02/22-rdf-syntax-ns#"
   xmlns:svg="http://www.w3.org/2000/svg"
   xmlns="http://www.w3.org/2000/svg"
   xmlns:sodipodi="http://sodipodi.sourceforge.net/DTD/sodipodi-0.dtd"
   xmlns:inkscape="http://www.inkscape.org/namespaces/inkscape"
   version="1.1"
   id="Layer_1"
   x="0px"
   y="0px"
   viewBox="0 0 298.17854 296.99999"
   xml:space="preserve"
   sodipodi:docname="logo.svg"
   inkscape:version="1.0.1 (3bc2e813f5, 2020-09-07)"
   width="15.778614mm"
   height="15.716249mm"><metadata
   id="metadata89"><rdf:RDF><cc:Work
       rdf:about=""><dc:format>image/svg+xml</dc:format><dc:type
         rdf:resource="http://purl.org/dc/dcmitype/StillImage" /><dc:title></dc:title></cc:Work></rdf:RDF></metadata><defs
   id="defs87">
		
	
		
	
		
	
		
	
		
	
		
	
		
	
		
	
		
	
		
	
		
	
			
		</defs><sodipodi:namedview
   pagecolor="#ffffff"
   bordercolor="#666666"
   borderopacity="1"
   objecttolerance="10"
   gridtolerance="10"
   guidetolerance="10"
   inkscape:pageopacity="0"
   inkscape:pageshadow="2"
   inkscape:window-width="3840"
   inkscape:window-height="2097"
   id="namedview85"
   showgrid="false"
   inkscape:zoom="1.6969697"
   inkscape:cx="113.84302"
   inkscape:cy="109.8476"
   inkscape:window-x="-8"
   inkscape:window-y="-8"
   inkscape:window-maximized="1"
   inkscape:current-layer="g52"
   inkscape:document-rotation="0"
   units="mm"
   fit-margin-top="0"
   fit-margin-left="0"
   fit-margin-right="0"
   fit-margin-bottom="0"
   scale-x="5" />

<g
   id="g54">
</g>
<g
   id="g56">
</g>
<g
   id="g58">
</g>
<g
   id="g60">
</g>
<g
   id="g62">
</g>
<g
   id="g64">
</g>
<g
   id="g66">
</g>
<g
   id="g68">
</g>
<g
   id="g70">
</g>
<g
   id="g72">
</g>
<g
   id="g74">
</g>
<g
   id="g76">
</g>
<g
   id="g78">
</g>
<g
   id="g80">
</g>
<g
   id="g82">
</g><g
   id="g52">
	
	
	
	
	
	
	
	
	
	
	
	
<g
   id="g4">
				<circle
   style="fill:#17ab93"
   cx="148.5"
   cy="148.5"
   r="148.5"
   id="circle2" />
			</g><path
   style="fill:#107a66"
   d="M 294.746,122.61 230.12,57.959 66.984,235.144 l 60.347,60.347 c 6.915,0.987 13.98,1.509 21.168,1.509 82.014,0 148.5,-66.486 148.5,-148.5 10e-4,-8.832 -0.774,-17.482 -2.253,-25.89 z"
   id="path10" /><rect
   x="82.5"
   y="99"
   style="fill:#3e464c"
   width="132"
   height="115.5"
   id="rect12" /><path
   style="fill:#32373b"
   d="M 222.253,105.749 H 74.747 C 68.535,105.749 63.5,100.713 63.5,94.502 V 65.996 c 0,-6.212 5.036,-11.247 11.247,-11.247 h 147.505 c 6.212,0 11.247,5.036 11.247,11.247 v 28.505 c 0.001,6.212 -5.035,11.248 -11.246,11.248 z"
   id="path16" /><path
   style="fill:#32373b"
   d="M 222.253,171.471 H 74.747 c -6.212,0 -11.247,-5.036 -11.247,-11.247 v -28.505 c 0,-6.212 5.036,-11.247 11.247,-11.247 h 147.505 c 6.212,0 11.247,5.036 11.247,11.247 v 28.505 c 0.001,6.212 -5.035,11.247 -11.246,11.247 z"
   id="path20" /><circle
   style="fill:#ffffff"
   cx="89"
   cy="80.249001"
   r="6.5"
   id="circle28" /><circle
   style="fill:#f86e51"
   cx="109"
   cy="80.249001"
   r="6.5"
   id="circle32" /><circle
   style="fill:#ffffff"
   cx="89"
   cy="145.97099"
   r="6.5"
   id="circle44" /><circle
   style="fill:#f86e51"
   cx="109"
   cy="145.97099"
   r="6.5"
   id="circle48" /><rect
   x="133.47321"
   y="223.92857"
   style="font-variation-settings:normal;opacity:1;vector-effect:none;fill:#3e464c;fill-opacity:1;stroke-width:0.273245;stroke-linecap:butt;stroke-linejoin:miter;stroke-miterlimit:4;stroke-dasharray:none;stroke-dashoffset:0;stroke-opacity:1;stop-color:#000000;stop-opacity:1"
   width="25.928572"
   height="43.901787"
   id="rect12-5" /><path
   style="fill:#32373b"
   d="M 222.253,238.251 H 74.747 c -6.212,0 -11.247,-5.036 -11.247,-11.247 v -28.505 c 0,-6.212 5.036,-11.247 11.247,-11.247 h 147.505 c 6.212,0 11.247,5.036 11.247,11.247 v 28.505 c 0.001,6.212 -5.035,11.247 -11.246,11.247 z"
   id="path24" /><circle
   style="fill:#ffffff"
   cx="89"
   cy="212.75101"
   r="6.5"
   id="circle36" /><circle
   style="fill:#f86e51"
   cx="109"
   cy="212.75101"
   r="6.5"
   id="circle40" /><rect
   x="0.1855278"
   y="253.91074"
   style="fill:#3e464c;stroke-width:0.661575"
   width="297.99301"
   height="22.392859"
   id="rect12-5-6" /></g>
</svg>
